<svg width="71" height="102" viewBox="0 0 71 102" fill="none" xmlns="http://www.w3.org/2000/svg">
<path d="M64.0602 90.9041L70.3882 0H0L0.0826968 1.17964L6.31803 90.9168L6.37096 91.6637L34.9278 101.839H35.3777L64.0007 91.6552L64.0536 90.9084L64.0602 90.9041ZM35.2553 19.8544H55.7078L55.0926 29.0199L34.9146 40.5277L35.252 42.5984H54.1862L52.0063 74.6396L35.1825 80.6226L18.3653 74.648L17.3068 59.3043H24.2301L24.7859 67.0823L24.8388 67.8376L35.0436 71.3171H35.4835L45.5758 67.7188L45.6255 66.9677L46.5781 52.5999L46.6542 51.4287H16.7279L16.0994 42.2081L36.9688 30.7469L36.638 28.6677H15.203L14.591 19.8416H35.2321L35.2553 19.8544Z" fill="#00DF5E"/>
</svg>
