<?xml version="1.0" encoding="UTF-8"?>
<svg version="1.1" xmlns="http://www.w3.org/2000/svg" width="1296" height="948">
<path d="M0 0 C1.80387582 -0.00435869 3.6077498 -0.00954565 5.41162109 -0.01548767 C10.26724684 -0.02876569 15.12279423 -0.02946886 19.97843456 -0.02692437 C24.05334086 -0.02584683 28.1282318 -0.03075796 32.20313478 -0.03552979 C41.82879448 -0.04658665 51.45441516 -0.04708424 61.08007812 -0.04101562 C70.96107634 -0.03498114 80.84193197 -0.04728239 90.72290587 -0.06858569 C99.25083239 -0.0862857 107.77871386 -0.09218982 116.30665803 -0.08894795 C121.3803383 -0.08714802 126.45391688 -0.08964061 131.52758026 -0.10366249 C136.30482783 -0.11637363 141.08185558 -0.11417326 145.85910034 -0.1012516 C147.5959201 -0.09891473 149.33275598 -0.1015144 151.06955719 -0.10987473 C173.874117 -0.21159121 195.06545311 2.37127165 212.33691406 18.7121582 C223.6172249 30.75857914 226.7456068 47.15977708 226.58691406 63.2121582 C226.58240234 64.08678711 226.57789063 64.96141602 226.57324219 65.86254883 C226.56156241 67.99994868 226.54363095 70.13731283 226.52441406 72.2746582 C227.41257812 72.39711914 228.30074219 72.51958008 229.21582031 72.64575195 C236.94809793 74.11552373 243.15006971 77.90047776 248.05566406 84.0324707 C254.65571742 94.10808408 254.67259596 104.62600936 254.66244507 116.26437378 C254.66526635 117.57734755 254.66808763 118.89032131 254.6709944 120.24308217 C254.67872136 123.87715849 254.68036542 127.51121591 254.68104553 131.14529943 C254.68289008 135.06919773 254.69049993 138.99308509 254.69752502 142.91697693 C254.70903854 149.7157973 254.71728946 156.5146152 254.72364426 163.31344223 C254.73399024 174.07226943 254.75456025 184.83106595 254.77676392 195.58987427 C254.7842434 199.27467908 254.79165722 202.95948403 254.79905128 206.64428902 C254.80090185 207.56516531 254.80275242 208.4860416 254.80465906 209.43482324 C254.82557807 219.91300743 254.84440868 230.39119501 254.86230469 240.86938477 C254.86394287 241.82693555 254.86558105 242.78448633 254.86726888 243.77105381 C254.89352251 259.26908282 254.91218397 274.76711421 254.92889659 290.26515602 C254.9463542 306.19753238 254.97523969 322.12986235 255.01378596 338.06220162 C255.03710872 347.87661036 255.05117356 357.69094344 255.05311359 367.50538011 C255.05523279 374.24181291 255.06824355 380.97817068 255.08959292 387.71456973 C255.10154744 391.5931286 255.10882358 395.4715386 255.10288048 399.35011482 C255.0774553 418.45607292 255.83118882 436.13147383 261.75097656 454.4699707 C262.08416901 455.52749542 262.41736145 456.58502014 262.76065063 457.67459106 C268.55909721 475.88692382 274.74317803 493.97808468 280.86401367 512.08380127 C282.25922039 516.21505738 283.64964155 520.34791779 285.04010582 524.48077202 C286.38479708 528.47570074 287.7323079 532.46967381 289.08070755 536.4633522 C289.7218487 538.36328268 290.36215536 540.26349497 291.00159836 542.16399765 C291.88835645 544.79804761 292.77886336 547.43080009 293.67041016 550.06323242 C293.9311734 550.84021988 294.19193665 551.61720734 294.46060181 552.41773987 C295.62200131 555.83493826 296.86478667 559.07230707 298.52441406 562.2746582 C305.77960784 540.57926685 313.0295982 518.8821429 320.27345753 497.18296432 C323.63728988 487.10691305 327.00280012 477.03142813 330.37231445 466.95727539 C333.31037435 458.17306809 336.24523126 449.38779824 339.17630309 440.60125661 C340.72729862 435.95216898 342.2798547 431.30361618 343.83625221 426.65633392 C345.30363989 422.27465984 346.76671361 417.89156834 348.22661018 413.50739288 C348.76074855 411.90579746 349.29640854 410.30470849 349.83377457 408.70419312 C355.06629177 393.11384905 358.67690537 378.85200962 358.66244507 362.31617737 C358.66526635 361.00658159 358.66808763 359.69698581 358.6709944 358.3477053 C358.67872114 354.72309993 358.68036541 351.09851351 358.68104553 347.47390091 C358.68289011 343.56024677 358.69049993 339.6466036 358.69752502 335.73295593 C358.7090382 328.9521403 358.71728926 322.17132714 358.72364426 315.39050484 C358.73398951 304.66135657 358.7545591 293.93223908 358.77676392 283.20310974 C358.78424336 279.52868376 358.79165718 275.85425766 358.79905128 272.1798315 C358.80182713 270.80242155 358.80182713 270.80242155 358.80465906 269.39718514 C358.82557765 258.94887512 358.84440872 248.5005617 358.86230469 238.05224609 C358.86394287 237.09742361 358.86558105 236.14260114 358.86726888 235.15884464 C358.8935271 219.7021725 358.91218612 204.24549798 358.92889659 188.788813 C358.94635032 172.90051186 358.97523135 157.01225726 359.01378596 141.12399334 C359.037116 131.33568468 359.05117422 121.54745195 359.05311359 111.75911527 C359.05523176 105.04184548 359.06823403 98.32465101 359.08959292 91.60741509 C359.10155487 87.73910628 359.10881849 83.87094693 359.10288048 80.0026207 C359.03912868 32.01399764 359.03912868 32.01399764 375.52441406 15.2746582 C394.30813909 -1.63663853 419.10012315 -0.02210401 442.70777893 0.02069092 C445.47849118 0.01949264 448.24919711 0.01528839 451.01990646 0.01123643 C457.0276098 0.00404218 463.03527714 0.00421418 469.0429821 0.00933075 C477.97683479 0.01691863 486.9106573 0.01301637 495.84450981 0.00691414 C511.80322424 -0.00360121 527.76192262 -0.00271103 543.72063856 0.00307196 C557.68594742 0.00810762 571.6512504 0.00941435 585.61655998 0.00702667 C587.00732375 0.00679752 587.00732375 0.00679752 588.42618377 0.00656373 C592.19009832 0.00594103 595.95401288 0.00530423 599.71792742 0.0046442 C635.00868869 -0.00147047 670.29943976 0.00406795 705.59019945 0.014838 C736.93017424 0.02432962 768.27013277 0.02347891 799.61010742 0.01391602 C834.8387799 0.00320242 870.06744337 -0.00103756 905.29611725 0.00514054 C909.0527728 0.00578196 912.80942835 0.00640764 916.56608391 0.00702667 C917.49103645 0.00718483 918.415989 0.00734298 919.36897041 0.00750593 C933.32471873 0.00977901 947.28046054 0.00712382 961.23620796 0.00206757 C977.1068198 -0.00365386 992.97741311 -0.00221502 1008.84802265 0.00862905 C1017.72564392 0.01449518 1026.60322508 0.01489428 1035.48084531 0.0073367 C1041.41575897 0.00284227 1047.35064057 0.00566051 1053.2855495 0.01434624 C1056.66359327 0.01908934 1060.04149246 0.01965232 1063.41954369 0.01353428 C1109.26763299 -0.06312473 1109.26763299 -0.06312473 1127.21191406 16.2746582 C1141.84956765 31.71543968 1142.02343241 51.30624697 1141.52441406 71.2746582 C1142.575 71.39583008 1143.62558594 71.51700195 1144.70800781 71.6418457 C1152.14643553 72.87523904 1158.62230353 76.22883694 1163.27832031 82.2434082 C1167.54602237 89.20016392 1169.6434661 96.47357221 1169.66485596 104.57278442 C1169.67342117 106.51564583 1169.67342117 106.51564583 1169.68215942 108.49775696 C1169.68340472 109.93136587 1169.68452983 111.36497489 1169.68554688 112.79858398 C1169.69017685 114.31002422 1169.69520176 115.82146329 1169.70059204 117.332901 C1169.71370368 121.4385761 1169.72015898 125.54423485 1169.7246027 129.64992762 C1169.72753637 132.21761831 1169.73164182 134.78530456 1169.73610687 137.35299301 C1169.74978065 145.39407554 1169.759447 153.43514789 1169.76330876 161.47624123 C1169.76778462 170.74418847 1169.785311 180.01198787 1169.81430936 189.27989018 C1169.83596743 196.45204534 1169.8460153 203.62415905 1169.84734988 210.79634655 C1169.84839527 215.07570576 1169.8542458 219.35492599 1169.87216949 223.63425064 C1169.88872091 227.66441762 1169.89077163 231.69434219 1169.88203049 235.72453117 C1169.88126379 237.19744328 1169.885554 238.6703688 1169.89548874 240.1432476 C1169.97428946 252.56207239 1168.6636448 263.57685684 1159.92675781 272.99731445 C1151.01198066 281.2622673 1140.30564502 281.42508633 1128.71743774 281.39491272 C1126.92115199 281.39619436 1126.92115199 281.39619436 1125.08857763 281.39750189 C1121.77285207 281.39886264 1118.45718572 281.3957433 1115.14146733 281.39072382 C1111.56280727 281.38640091 1107.984149 281.38786706 1104.40548706 281.3886261 C1098.20792839 281.38915016 1092.01038027 281.3860156 1085.81282425 281.38038826 C1076.85222539 281.3722574 1067.89163163 281.36965641 1058.93102948 281.36840027 C1044.39265609 281.36621225 1029.85428831 281.35955892 1015.31591797 281.35009766 C1001.19417346 281.34091709 987.07243048 281.3338394 972.95068359 281.32958984 C972.08005723 281.32932712 971.20943086 281.3290644 970.31242187 281.32879371 C965.94469688 281.32748866 961.57697188 281.32622496 957.20924687 281.32498181 C920.98096515 281.31461697 884.75269041 281.29673 848.52441406 281.2746582 C848.52441406 296.1246582 848.52441406 310.9746582 848.52441406 326.2746582 C853.11621582 326.25894775 857.70801758 326.2432373 862.43896484 326.22705078 C877.63807656 326.17726291 892.83719155 326.14401932 908.0363636 326.11922169 C917.24840596 326.10379079 926.46037074 326.08277401 935.67236328 326.04833984 C943.70694276 326.01832128 951.74146603 325.99905578 959.77610004 325.99239272 C964.02547793 325.98850144 968.27469507 325.97943636 972.52402115 325.95746803 C976.53443459 325.93690542 980.54462307 325.93086374 984.55508423 325.93533516 C986.0166433 325.9345187 987.47821094 325.9286719 988.93972397 325.91704178 C1006.46822077 325.78455484 1023.40964673 328.56665476 1036.42919922 340.98364258 C1051.77583525 356.33540269 1052.70751124 375.72310306 1053.52441406 396.2746582 C1054.43477417 396.56904785 1054.43477417 396.56904785 1055.36352539 396.86938477 C1056.16556396 397.13203125 1056.96760254 397.39467773 1057.79394531 397.6652832 C1058.58647705 397.92341797 1059.37900879 398.18155273 1060.19555664 398.44750977 C1067.74944109 401.13044933 1073.14147918 405.48602154 1076.75097656 412.73950195 C1079.52824721 419.38297311 1080.64534316 425.47172784 1080.66485596 432.6859436 C1080.67342117 434.59072983 1080.67342117 434.59072983 1080.68215942 436.53399658 C1080.68340457 437.92883291 1080.68452971 439.32366935 1080.68554688 440.71850586 C1080.69017975 442.1974398 1080.69520504 443.67637256 1080.70059204 445.15530396 C1080.71367481 449.16389057 1080.72015319 453.17246047 1080.7246027 457.18106508 C1080.72754074 459.69015379 1080.73164696 462.199238 1080.73610687 464.70832443 C1080.74977238 472.57213749 1080.75944306 480.43594018 1080.76330876 488.29976428 C1080.7677841 497.35203103 1080.7853116 506.40414639 1080.81430936 515.45636714 C1080.83598956 522.46978421 1080.84601645 529.48315889 1080.84734988 536.49660909 C1080.84839359 540.67763501 1080.85420804 544.85851843 1080.87216949 549.03950882 C1080.88875972 552.97778326 1080.89075316 556.91580977 1080.88203049 560.8541069 C1080.88126587 562.29070453 1080.88552588 563.72731611 1080.89548874 565.16387939 C1080.97595078 577.5003151 1080.17386768 589.73565465 1071.52441406 599.2746582 C1060.10392148 609.42620717 1045.97917146 608.70051249 1031.64086914 608.61523438 C1029.63927218 608.61438703 1027.6376743 608.61486534 1025.63607788 608.61656189 C1020.22979417 608.61741907 1014.82371205 608.59983834 1009.41747499 608.57884002 C1003.75738704 608.56002681 998.09729396 608.55831912 992.43717957 608.55476379 C981.73125464 608.54545695 971.02542213 608.52086161 960.31953782 608.49071532 C948.12605737 608.45712891 935.93257241 608.44067465 923.73905718 608.42562902 C898.66745833 608.39431084 873.59594139 608.34157686 848.52441406 608.2746582 C848.52717944 609.42834019 848.52994482 610.58202217 848.532794 611.77066422 C848.59784821 639.19211427 848.64727591 666.61355588 848.67761005 694.03506733 C848.68136191 697.41441026 848.6852449 700.79375302 848.68920898 704.1730957 C848.68999592 704.84582692 848.69078285 705.51855813 848.69159362 706.21167514 C848.70462711 717.08675777 848.72826953 727.96179256 848.75587245 738.83684686 C848.78398404 750.00594088 848.80037809 761.1750186 848.80667955 772.3441484 C848.81058454 778.61335296 848.81973856 784.88244918 848.84160423 791.15161896 C848.86203676 797.05799941 848.86823416 802.96422736 848.86373711 808.8706398 C848.86455928 811.03288477 848.87048438 813.19513509 848.88203049 815.3573494 C849.03559465 845.61076361 849.03559465 845.61076361 838.25488281 857.66918945 C827.00322439 868.108087 808.65716745 866.42485399 794.47680664 866.41992188 C792.75437345 866.42291786 791.03194093 866.4263214 789.30950928 866.43009949 C784.65015629 866.43889986 779.99082169 866.44127595 775.33146119 866.44191527 C772.41411987 866.44262813 769.49678315 866.44476693 766.57944298 866.44741249 C756.38360678 866.45665345 746.18778361 866.46074902 735.99194336 866.45996094 C726.51771732 866.45936078 717.04354833 866.46990365 707.56933671 866.4857046 C699.41103945 866.49882153 691.25276075 866.50414308 683.09445304 866.50350553 C678.2326902 866.50325172 673.37097809 866.50603762 668.50922585 866.51668358 C663.93156451 866.52643449 659.35400167 866.5263963 654.77633667 866.51916695 C653.10676109 866.51812968 651.43717914 866.52043231 649.76761436 866.5265274 C618.25875512 866.6340053 618.25875512 866.6340053 607.71191406 857.9621582 C602.34764631 851.3717721 598.36007508 846.14896316 598.52441406 837.2746582 C597.91146484 837.29560547 597.29851563 837.31655273 596.66699219 837.33813477 C575.2721838 837.97021774 559.01529162 835.48998791 541.52441406 822.2746582 C541.3890625 822.84571289 541.25371094 823.41676758 541.11425781 824.00512695 C537.26960571 838.48588247 529.47419081 851.56603966 516.33691406 859.2121582 C502.63144435 866.00891973 487.28652207 866.42973446 472.26852417 866.40837097 C471.08280638 866.41063653 469.89708859 866.41290208 468.67543995 866.41523629 C465.41524455 866.42043716 462.1550842 866.4212271 458.89488602 866.42004192 C455.36642825 866.41983654 451.8379785 866.42536972 448.30952454 866.43009949 C441.40780055 866.43837732 434.50608511 866.44115304 427.60435657 866.44171187 C421.98882158 866.44218844 416.37328939 866.4442502 410.75775528 866.44741249 C394.80563899 866.45621161 378.85352941 866.46083309 362.90141068 866.46008202 C362.04288071 866.46004206 361.18435073 866.4600021 360.29980469 866.45996094 C359.01042103 866.45989962 359.01042103 866.45989962 357.69498922 866.45983706 C343.77503026 866.4594309 329.8550984 866.46899463 315.93514727 866.4830993 C301.61180784 866.49749715 287.28848159 866.5043676 272.96513474 866.50350553 C264.93595174 866.50317471 256.90679714 866.50587093 248.8776207 866.51668358 C242.03969557 866.52583362 235.2018117 866.52792718 228.36388306 866.52117416 C224.88226356 866.51793138 221.40072302 866.51776998 217.91911125 866.5265274 C179.97688133 866.60444195 179.97688133 866.60444195 166.52441406 861.2746582 C165.69683594 860.94852539 164.86925781 860.62239258 164.01660156 860.28637695 C154.6181606 856.10450185 146.97562821 848.60207679 142.52441406 839.2746582 C142.52441406 838.6146582 142.52441406 837.9546582 142.52441406 837.2746582 C141.89277344 837.30946289 141.26113281 837.34426758 140.61035156 837.38012695 C128.70403438 837.74040456 117.46003156 834.84773461 106.52441406 830.2746582 C105.69425781 829.93950195 104.86410156 829.6043457 104.00878906 829.2590332 C79.75007527 818.42652579 70.84681681 790.73822272 61.84863281 767.84887695 C61.01456889 765.74340693 60.17980121 763.63821558 59.34439087 761.53327942 C57.55924961 757.03193431 55.77826912 752.5289755 54.00064087 748.0246582 C49.95052481 737.76322469 45.88027771 727.50977518 41.81127197 717.25582087 C40.5664287 714.11879119 39.32186909 710.98164959 38.07795906 707.84424973 C27.5369031 681.25755203 16.88721628 654.71493496 6.20866776 628.1831665 C3.93290988 622.52840526 1.65826204 616.87319755 -0.61645508 611.21801758 C-1.50281963 609.0144742 -2.38918739 606.81093211 -3.27555847 604.60739136 C-3.70738119 603.53386288 -4.13920391 602.4603344 -4.58411217 601.35427475 C-5.86235265 598.17666282 -7.14073676 594.9991087 -8.41914368 591.82156372 C-17.62772905 568.93172453 -26.81327265 546.03277515 -35.94496155 523.11213684 C-38.20508902 517.44325422 -40.48091992 511.78112188 -42.77444458 506.12567139 C-54.84314162 476.35417427 -66.60639149 446.18198654 -71.47558594 414.2746582 C-71.65589355 413.12731201 -71.65589355 413.12731201 -71.83984375 411.95678711 C-74.89908866 391.97242769 -74.63156384 371.78178345 -74.6356287 351.62224174 C-74.63750127 347.6153944 -74.64505868 343.60855671 -74.65176392 339.60171509 C-74.66525296 330.87058949 -74.67135566 322.13946853 -74.67577457 313.40833426 C-74.67855018 307.94747542 -74.68278955 302.48661831 -74.68727875 297.02576065 C-74.69945361 281.87572021 -74.70975996 266.72568114 -74.71315384 251.57563591 C-74.71337341 250.60919468 -74.71359297 249.64275345 -74.71381919 248.64702613 C-74.71403747 247.67844288 -74.71425575 246.70985964 -74.71448064 245.71192539 C-74.71492409 243.74960065 -74.71537065 241.78727591 -74.71582031 239.82495117 C-74.71604174 238.85159648 -74.71626317 237.87824179 -74.71649131 236.8753915 C-74.72044302 221.08886034 -74.73791642 205.30237522 -74.76117983 189.51586185 C-74.78492675 173.26906112 -74.79735702 157.02228349 -74.79852176 140.77546513 C-74.79943605 131.66883584 -74.8051273 122.56226677 -74.82334137 113.45565414 C-74.83878677 105.70688843 -74.8438363 97.95820161 -74.83560327 90.20942341 C-74.83171393 86.26216809 -74.83254209 82.31507148 -74.84666061 78.367836 C-74.85950157 74.74450925 -74.85811409 71.12145881 -74.8460699 67.49813189 C-74.84322202 65.58832672 -74.85497015 63.67851631 -74.86749196 61.76875007 C-74.76687222 43.92088349 -70.60658426 27.53569533 -57.85058594 14.3918457 C-41.87675945 0.15202011 -20.21258672 -0.03269892 0 0 Z " fill="#5CE0E5" transform="translate(97.4755859375,25.725341796875)"/>
<path d="M0 0 C1.80387582 -0.00435869 3.6077498 -0.00954565 5.41162109 -0.01548767 C10.26724684 -0.02876569 15.12279423 -0.02946886 19.97843456 -0.02692437 C24.05334086 -0.02584683 28.1282318 -0.03075796 32.20313478 -0.03552979 C41.82879448 -0.04658665 51.45441516 -0.04708424 61.08007812 -0.04101562 C70.96107634 -0.03498114 80.84193197 -0.04728239 90.72290587 -0.06858569 C99.25083239 -0.0862857 107.77871386 -0.09218982 116.30665803 -0.08894795 C121.3803383 -0.08714802 126.45391688 -0.08964061 131.52758026 -0.10366249 C136.30482783 -0.11637363 141.08185558 -0.11417326 145.85910034 -0.1012516 C147.5959201 -0.09891473 149.33275598 -0.1015144 151.06955719 -0.10987473 C173.874117 -0.21159121 195.06545311 2.37127165 212.33691406 18.7121582 C223.6172249 30.75857914 226.7456068 47.15977708 226.58691406 63.2121582 C226.58240234 64.08678711 226.57789063 64.96141602 226.57324219 65.86254883 C226.56156241 67.99994868 226.54363095 70.13731283 226.52441406 72.2746582 C227.41257812 72.39711914 228.30074219 72.51958008 229.21582031 72.64575195 C236.94809793 74.11552373 243.15006971 77.90047776 248.05566406 84.0324707 C254.65571742 94.10808408 254.67259596 104.62600936 254.66244507 116.26437378 C254.66526635 117.57734755 254.66808763 118.89032131 254.6709944 120.24308217 C254.67872136 123.87715849 254.68036542 127.51121591 254.68104553 131.14529943 C254.68289008 135.06919773 254.69049993 138.99308509 254.69752502 142.91697693 C254.70903854 149.7157973 254.71728946 156.5146152 254.72364426 163.31344223 C254.73399024 174.07226943 254.75456025 184.83106595 254.77676392 195.58987427 C254.7842434 199.27467908 254.79165722 202.95948403 254.79905128 206.64428902 C254.80090185 207.56516531 254.80275242 208.4860416 254.80465906 209.43482324 C254.82557807 219.91300743 254.84440868 230.39119501 254.86230469 240.86938477 C254.86394287 241.82693555 254.86558105 242.78448633 254.86726888 243.77105381 C254.89352251 259.26908282 254.91218397 274.76711421 254.92889659 290.26515602 C254.9463542 306.19753238 254.97523969 322.12986235 255.01378596 338.06220162 C255.03710872 347.87661036 255.05117356 357.69094344 255.05311359 367.50538011 C255.05523279 374.24181291 255.06824355 380.97817068 255.08959292 387.71456973 C255.10154744 391.5931286 255.10882358 395.4715386 255.10288048 399.35011482 C255.0774553 418.45607292 255.83118882 436.13147383 261.75097656 454.4699707 C262.08416901 455.52749542 262.41736145 456.58502014 262.76065063 457.67459106 C268.55909721 475.88692382 274.74317803 493.97808468 280.86401367 512.08380127 C282.25922039 516.21505738 283.64964155 520.34791779 285.04010582 524.48077202 C286.38479708 528.47570074 287.7323079 532.46967381 289.08070755 536.4633522 C289.7218487 538.36328268 290.36215536 540.26349497 291.00159836 542.16399765 C291.88835645 544.79804761 292.77886336 547.43080009 293.67041016 550.06323242 C293.9311734 550.84021988 294.19193665 551.61720734 294.46060181 552.41773987 C295.62200131 555.83493826 296.86478667 559.07230707 298.52441406 562.2746582 C305.77960784 540.57926685 313.0295982 518.8821429 320.27345753 497.18296432 C323.63728988 487.10691305 327.00280012 477.03142813 330.37231445 466.95727539 C333.31037435 458.17306809 336.24523126 449.38779824 339.17630309 440.60125661 C340.72729862 435.95216898 342.2798547 431.30361618 343.83625221 426.65633392 C345.30363989 422.27465984 346.76671361 417.89156834 348.22661018 413.50739288 C348.76074855 411.90579746 349.29640854 410.30470849 349.83377457 408.70419312 C355.06629177 393.11384905 358.67690537 378.85200962 358.66244507 362.31617737 C358.66526635 361.00658159 358.66808763 359.69698581 358.6709944 358.3477053 C358.67872114 354.72309993 358.68036541 351.09851351 358.68104553 347.47390091 C358.68289011 343.56024677 358.69049993 339.6466036 358.69752502 335.73295593 C358.7090382 328.9521403 358.71728926 322.17132714 358.72364426 315.39050484 C358.73398951 304.66135657 358.7545591 293.93223908 358.77676392 283.20310974 C358.78424336 279.52868376 358.79165718 275.85425766 358.79905128 272.1798315 C358.80182713 270.80242155 358.80182713 270.80242155 358.80465906 269.39718514 C358.82557765 258.94887512 358.84440872 248.5005617 358.86230469 238.05224609 C358.86394287 237.09742361 358.86558105 236.14260114 358.86726888 235.15884464 C358.8935271 219.7021725 358.91218612 204.24549798 358.92889659 188.788813 C358.94635032 172.90051186 358.97523135 157.01225726 359.01378596 141.12399334 C359.037116 131.33568468 359.05117422 121.54745195 359.05311359 111.75911527 C359.05523176 105.04184548 359.06823403 98.32465101 359.08959292 91.60741509 C359.10155487 87.73910628 359.10881849 83.87094693 359.10288048 80.0026207 C359.03912868 32.01399764 359.03912868 32.01399764 375.52441406 15.2746582 C394.30813909 -1.63663853 419.10012315 -0.02210401 442.70777893 0.02069092 C445.47849118 0.01949264 448.24919711 0.01528839 451.01990646 0.01123643 C457.0276098 0.00404218 463.03527714 0.00421418 469.0429821 0.00933075 C477.97683479 0.01691863 486.9106573 0.01301637 495.84450981 0.00691414 C511.80322424 -0.00360121 527.76192262 -0.00271103 543.72063856 0.00307196 C557.68594742 0.00810762 571.6512504 0.00941435 585.61655998 0.00702667 C587.00732375 0.00679752 587.00732375 0.00679752 588.42618377 0.00656373 C592.19009832 0.00594103 595.95401288 0.00530423 599.71792742 0.0046442 C635.00868869 -0.00147047 670.29943976 0.00406795 705.59019945 0.014838 C736.93017424 0.02432962 768.27013277 0.02347891 799.61010742 0.01391602 C834.8387799 0.00320242 870.06744337 -0.00103756 905.29611725 0.00514054 C909.0527728 0.00578196 912.80942835 0.00640764 916.56608391 0.00702667 C917.49103645 0.00718483 918.415989 0.00734298 919.36897041 0.00750593 C933.32471873 0.00977901 947.28046054 0.00712382 961.23620796 0.00206757 C977.1068198 -0.00365386 992.97741311 -0.00221502 1008.84802265 0.00862905 C1017.72564392 0.01449518 1026.60322508 0.01489428 1035.48084531 0.0073367 C1041.41575897 0.00284227 1047.35064057 0.00566051 1053.2855495 0.01434624 C1056.66359327 0.01908934 1060.04149246 0.01965232 1063.41954369 0.01353428 C1109.26763299 -0.06312473 1109.26763299 -0.06312473 1127.21191406 16.2746582 C1141.84956765 31.71543968 1142.02343241 51.30624697 1141.52441406 71.2746582 C1142.575 71.39583008 1143.62558594 71.51700195 1144.70800781 71.6418457 C1152.14643553 72.87523904 1158.62230353 76.22883694 1163.27832031 82.2434082 C1167.54602237 89.20016392 1169.6434661 96.47357221 1169.66485596 104.57278442 C1169.67342117 106.51564583 1169.67342117 106.51564583 1169.68215942 108.49775696 C1169.68340472 109.93136587 1169.68452983 111.36497489 1169.68554688 112.79858398 C1169.69017685 114.31002422 1169.69520176 115.82146329 1169.70059204 117.332901 C1169.71370368 121.4385761 1169.72015898 125.54423485 1169.7246027 129.64992762 C1169.72753637 132.21761831 1169.73164182 134.78530456 1169.73610687 137.35299301 C1169.74978065 145.39407554 1169.759447 153.43514789 1169.76330876 161.47624123 C1169.76778462 170.74418847 1169.785311 180.01198787 1169.81430936 189.27989018 C1169.83596743 196.45204534 1169.8460153 203.62415905 1169.84734988 210.79634655 C1169.84839527 215.07570576 1169.8542458 219.35492599 1169.87216949 223.63425064 C1169.88872091 227.66441762 1169.89077163 231.69434219 1169.88203049 235.72453117 C1169.88126379 237.19744328 1169.885554 238.6703688 1169.89548874 240.1432476 C1169.97428946 252.56207239 1168.6636448 263.57685684 1159.92675781 272.99731445 C1151.01198066 281.2622673 1140.30564502 281.42508633 1128.71743774 281.39491272 C1126.92115199 281.39619436 1126.92115199 281.39619436 1125.08857763 281.39750189 C1121.77285207 281.39886264 1118.45718572 281.3957433 1115.14146733 281.39072382 C1111.56280727 281.38640091 1107.984149 281.38786706 1104.40548706 281.3886261 C1098.20792839 281.38915016 1092.01038027 281.3860156 1085.81282425 281.38038826 C1076.85222539 281.3722574 1067.89163163 281.36965641 1058.93102948 281.36840027 C1044.39265609 281.36621225 1029.85428831 281.35955892 1015.31591797 281.35009766 C1001.19417346 281.34091709 987.07243048 281.3338394 972.95068359 281.32958984 C972.08005723 281.32932712 971.20943086 281.3290644 970.31242187 281.32879371 C965.94469688 281.32748866 961.57697188 281.32622496 957.20924687 281.32498181 C920.98096515 281.31461697 884.75269041 281.29673 848.52441406 281.2746582 C848.52441406 296.1246582 848.52441406 310.9746582 848.52441406 326.2746582 C853.11621582 326.25894775 857.70801758 326.2432373 862.43896484 326.22705078 C877.63807656 326.17726291 892.83719155 326.14401932 908.0363636 326.11922169 C917.24840596 326.10379079 926.46037074 326.08277401 935.67236328 326.04833984 C943.70694276 326.01832128 951.74146603 325.99905578 959.77610004 325.99239272 C964.02547793 325.98850144 968.27469507 325.97943636 972.52402115 325.95746803 C976.53443459 325.93690542 980.54462307 325.93086374 984.55508423 325.93533516 C986.0166433 325.9345187 987.47821094 325.9286719 988.93972397 325.91704178 C1006.46822077 325.78455484 1023.40964673 328.56665476 1036.42919922 340.98364258 C1051.77583525 356.33540269 1052.70751124 375.72310306 1053.52441406 396.2746582 C1054.43477417 396.56904785 1054.43477417 396.56904785 1055.36352539 396.86938477 C1056.16556396 397.13203125 1056.96760254 397.39467773 1057.79394531 397.6652832 C1058.58647705 397.92341797 1059.37900879 398.18155273 1060.19555664 398.44750977 C1067.74944109 401.13044933 1073.14147918 405.48602154 1076.75097656 412.73950195 C1079.52824721 419.38297311 1080.64534316 425.47172784 1080.66485596 432.6859436 C1080.67342117 434.59072983 1080.67342117 434.59072983 1080.68215942 436.53399658 C1080.68340457 437.92883291 1080.68452971 439.32366935 1080.68554688 440.71850586 C1080.69017975 442.1974398 1080.69520504 443.67637256 1080.70059204 445.15530396 C1080.71367481 449.16389057 1080.72015319 453.17246047 1080.7246027 457.18106508 C1080.72754074 459.69015379 1080.73164696 462.199238 1080.73610687 464.70832443 C1080.74977238 472.57213749 1080.75944306 480.43594018 1080.76330876 488.29976428 C1080.7677841 497.35203103 1080.7853116 506.40414639 1080.81430936 515.45636714 C1080.83598956 522.46978421 1080.84601645 529.48315889 1080.84734988 536.49660909 C1080.84839359 540.67763501 1080.85420804 544.85851843 1080.87216949 549.03950882 C1080.88875972 552.97778326 1080.89075316 556.91580977 1080.88203049 560.8541069 C1080.88126587 562.29070453 1080.88552588 563.72731611 1080.89548874 565.16387939 C1080.97595078 577.5003151 1080.17386768 589.73565465 1071.52441406 599.2746582 C1060.10392148 609.42620717 1045.97917146 608.70051249 1031.64086914 608.61523438 C1029.63927218 608.61438703 1027.6376743 608.61486534 1025.63607788 608.61656189 C1020.22979417 608.61741907 1014.82371205 608.59983834 1009.41747499 608.57884002 C1003.75738704 608.56002681 998.09729396 608.55831912 992.43717957 608.55476379 C981.73125464 608.54545695 971.02542213 608.52086161 960.31953782 608.49071532 C948.12605737 608.45712891 935.93257241 608.44067465 923.73905718 608.42562902 C898.66745833 608.39431084 873.59594139 608.34157686 848.52441406 608.2746582 C848.52717944 609.42834019 848.52994482 610.58202217 848.532794 611.77066422 C848.59784821 639.19211427 848.64727591 666.61355588 848.67761005 694.03506733 C848.68136191 697.41441026 848.6852449 700.79375302 848.68920898 704.1730957 C848.68999592 704.84582692 848.69078285 705.51855813 848.69159362 706.21167514 C848.70462711 717.08675777 848.72826953 727.96179256 848.75587245 738.83684686 C848.78398404 750.00594088 848.80037809 761.1750186 848.80667955 772.3441484 C848.81058454 778.61335296 848.81973856 784.88244918 848.84160423 791.15161896 C848.86203676 797.05799941 848.86823416 802.96422736 848.86373711 808.8706398 C848.86455928 811.03288477 848.87048438 813.19513509 848.88203049 815.3573494 C849.03559465 845.61076361 849.03559465 845.61076361 838.25488281 857.66918945 C827.00322439 868.108087 808.65716745 866.42485399 794.47680664 866.41992188 C792.75437345 866.42291786 791.03194093 866.4263214 789.30950928 866.43009949 C784.65015629 866.43889986 779.99082169 866.44127595 775.33146119 866.44191527 C772.41411987 866.44262813 769.49678315 866.44476693 766.57944298 866.44741249 C756.38360678 866.45665345 746.18778361 866.46074902 735.99194336 866.45996094 C726.51771732 866.45936078 717.04354833 866.46990365 707.56933671 866.4857046 C699.41103945 866.49882153 691.25276075 866.50414308 683.09445304 866.50350553 C678.2326902 866.50325172 673.37097809 866.50603762 668.50922585 866.51668358 C663.93156451 866.52643449 659.35400167 866.5263963 654.77633667 866.51916695 C653.10676109 866.51812968 651.43717914 866.52043231 649.76761436 866.5265274 C618.25875512 866.6340053 618.25875512 866.6340053 607.71191406 857.9621582 C602.34764631 851.3717721 598.36007508 846.14896316 598.52441406 837.2746582 C597.91146484 837.29560547 597.29851563 837.31655273 596.66699219 837.33813477 C575.2721838 837.97021774 559.01529162 835.48998791 541.52441406 822.2746582 C541.3890625 822.84571289 541.25371094 823.41676758 541.11425781 824.00512695 C537.26960571 838.48588247 529.47419081 851.56603966 516.33691406 859.2121582 C502.63144435 866.00891973 487.28652207 866.42973446 472.26852417 866.40837097 C471.08280638 866.41063653 469.89708859 866.41290208 468.67543995 866.41523629 C465.41524455 866.42043716 462.1550842 866.4212271 458.89488602 866.42004192 C455.36642825 866.41983654 451.8379785 866.42536972 448.30952454 866.43009949 C441.40780055 866.43837732 434.50608511 866.44115304 427.60435657 866.44171187 C421.98882158 866.44218844 416.37328939 866.4442502 410.75775528 866.44741249 C394.80563899 866.45621161 378.85352941 866.46083309 362.90141068 866.46008202 C362.04288071 866.46004206 361.18435073 866.4600021 360.29980469 866.45996094 C359.01042103 866.45989962 359.01042103 866.45989962 357.69498922 866.45983706 C343.77503026 866.4594309 329.8550984 866.46899463 315.93514727 866.4830993 C301.61180784 866.49749715 287.28848159 866.5043676 272.96513474 866.50350553 C264.93595174 866.50317471 256.90679714 866.50587093 248.8776207 866.51668358 C242.03969557 866.52583362 235.2018117 866.52792718 228.36388306 866.52117416 C224.88226356 866.51793138 221.40072302 866.51776998 217.91911125 866.5265274 C179.97688133 866.60444195 179.97688133 866.60444195 166.52441406 861.2746582 C165.69683594 860.94852539 164.86925781 860.62239258 164.01660156 860.28637695 C154.6181606 856.10450185 146.97562821 848.60207679 142.52441406 839.2746582 C142.52441406 838.6146582 142.52441406 837.9546582 142.52441406 837.2746582 C141.89277344 837.30946289 141.26113281 837.34426758 140.61035156 837.38012695 C128.70403438 837.74040456 117.46003156 834.84773461 106.52441406 830.2746582 C105.69425781 829.93950195 104.86410156 829.6043457 104.00878906 829.2590332 C79.75007527 818.42652579 70.84681681 790.73822272 61.84863281 767.84887695 C61.01456889 765.74340693 60.17980121 763.63821558 59.34439087 761.53327942 C57.55924961 757.03193431 55.77826912 752.5289755 54.00064087 748.0246582 C49.95052481 737.76322469 45.88027771 727.50977518 41.81127197 717.25582087 C40.5664287 714.11879119 39.32186909 710.98164959 38.07795906 707.84424973 C27.5369031 681.25755203 16.88721628 654.71493496 6.20866776 628.1831665 C3.93290988 622.52840526 1.65826204 616.87319755 -0.61645508 611.21801758 C-1.50281963 609.0144742 -2.38918739 606.81093211 -3.27555847 604.60739136 C-3.70738119 603.53386288 -4.13920391 602.4603344 -4.58411217 601.35427475 C-5.86235265 598.17666282 -7.14073676 594.9991087 -8.41914368 591.82156372 C-17.62772905 568.93172453 -26.81327265 546.03277515 -35.94496155 523.11213684 C-38.20508902 517.44325422 -40.48091992 511.78112188 -42.77444458 506.12567139 C-54.84314162 476.35417427 -66.60639149 446.18198654 -71.47558594 414.2746582 C-71.65589355 413.12731201 -71.65589355 413.12731201 -71.83984375 411.95678711 C-74.89908866 391.97242769 -74.63156384 371.78178345 -74.6356287 351.62224174 C-74.63750127 347.6153944 -74.64505868 343.60855671 -74.65176392 339.60171509 C-74.66525296 330.87058949 -74.67135566 322.13946853 -74.67577457 313.40833426 C-74.67855018 307.94747542 -74.68278955 302.48661831 -74.68727875 297.02576065 C-74.69945361 281.87572021 -74.70975996 266.72568114 -74.71315384 251.57563591 C-74.71337341 250.60919468 -74.71359297 249.64275345 -74.71381919 248.64702613 C-74.71403747 247.67844288 -74.71425575 246.70985964 -74.71448064 245.71192539 C-74.71492409 243.74960065 -74.71537065 241.78727591 -74.71582031 239.82495117 C-74.71604174 238.85159648 -74.71626317 237.87824179 -74.71649131 236.8753915 C-74.72044302 221.08886034 -74.73791642 205.30237522 -74.76117983 189.51586185 C-74.78492675 173.26906112 -74.79735702 157.02228349 -74.79852176 140.77546513 C-74.79943605 131.66883584 -74.8051273 122.56226677 -74.82334137 113.45565414 C-74.83878677 105.70688843 -74.8438363 97.95820161 -74.83560327 90.20942341 C-74.83171393 86.26216809 -74.83254209 82.31507148 -74.84666061 78.367836 C-74.85950157 74.74450925 -74.85811409 71.12145881 -74.8460699 67.49813189 C-74.84322202 65.58832672 -74.85497015 63.67851631 -74.86749196 61.76875007 C-74.76687222 43.92088349 -70.60658426 27.53569533 -57.85058594 14.3918457 C-41.87675945 0.15202011 -20.21258672 -0.03269892 0 0 Z M-30.47558594 46.2746582 C-33.30148085 53.05963325 -32.75543677 60.40780852 -32.72955322 67.66142273 C-32.73186013 69.01867124 -32.7350382 70.37591851 -32.73900771 71.73316318 C-32.74733407 75.44850066 -32.74324014 79.163735 -32.73703527 82.87907279 C-32.73250237 86.89232993 -32.73949909 90.90556959 -32.74499512 94.91882324 C-32.75388496 102.77883449 -32.751968 110.63880752 -32.74616984 118.49882027 C-32.74164757 124.89528717 -32.7410429 131.29174339 -32.74321747 137.68821144 C-32.74352393 138.59970891 -32.7438304 139.51120638 -32.74414615 140.45032499 C-32.74478564 142.30235936 -32.74543407 144.15439373 -32.74609134 146.0064281 C-32.75179452 163.37507427 -32.7452391 180.74369933 -32.7344906 198.11234204 C-32.72557464 212.97871391 -32.72709099 227.84505449 -32.73632812 242.71142578 C-32.74706476 259.99904053 -32.75122467 277.28663671 -32.7451036 294.57425433 C-32.74446656 296.42333622 -32.74383782 298.27241812 -32.74321747 300.12150002 C-32.74290892 301.03110566 -32.74260037 301.9407113 -32.74228247 302.87788075 C-32.74056421 309.25159128 -32.74345217 315.62528995 -32.74817657 321.99899864 C-32.75382408 329.78915926 -32.75218934 337.57927966 -32.74161509 345.36943575 C-32.73640689 349.33556226 -32.734217 353.30162206 -32.74091339 357.26774788 C-32.80815647 400.80508813 -24.62536955 437.8563096 -8.85058594 478.2746582 C-8.55357788 479.03572876 -8.25656982 479.79679932 -7.95056152 480.58093262 C-4.41663698 489.59854996 -0.7721557 498.57048355 2.91674805 507.52563477 C3.2248129 508.27353901 3.53287775 509.02144325 3.8502779 509.79201126 C4.32599625 510.94693132 4.32599625 510.94693132 4.81132507 512.12518311 C14.27425442 535.10165808 23.48954133 558.17240217 32.65527344 581.26882935 C37.33015584 593.04819843 42.01455285 604.82378467 46.70019531 616.59887695 C47.18203907 617.80983976 47.66388283 619.02080257 48.16032791 620.26846123 C58.92694197 647.32223191 69.76604232 674.34667446 80.62749863 701.36250305 C82.00926634 704.79948012 83.390723 708.23658208 84.77212524 711.67370605 C89.31245013 722.96935839 93.85886416 734.26250387 98.41619587 745.55130577 C100.34729553 750.3392493 102.26608547 755.13167959 104.16446686 759.93269062 C104.93485378 761.87950921 105.70924011 763.82468055 106.48522949 765.76927185 C107.35853874 767.9606872 108.22452504 770.15504799 109.0802002 772.35340881 C113.80817946 784.26407246 113.80817946 784.26407246 123.27441406 792.2121582 C124.41136719 792.75163086 124.41136719 792.75163086 125.57128906 793.30200195 C134.03979875 796.09123332 142.26505531 796.56617442 151.1290741 796.54208374 C152.36435122 796.54661485 153.59962835 796.55114597 154.87233812 796.55581439 C158.27553285 796.56623242 161.67851507 796.56779323 165.08171046 796.56542563 C168.76217109 796.56501548 172.44260084 796.57607551 176.12304688 796.58554077 C183.32436547 796.60210901 190.52565131 796.60764843 197.72698738 796.60876553 C203.58474855 796.60971801 209.44249897 796.61383831 215.30025673 796.62016678 C231.93246686 796.63776801 248.56465125 796.64700743 265.19687077 796.64550583 C266.09233554 796.64542592 266.98780032 796.64534601 267.91040039 796.64526367 C269.2552503 796.64514103 269.2552503 796.64514103 270.62726889 796.64501591 C285.15006248 796.64420339 299.67275226 796.66333538 314.19551583 796.69154041 C329.13128613 796.7203171 344.06700588 796.73407806 359.00280458 796.73235285 C367.37849809 796.73169059 375.75408277 796.73711083 384.12975121 796.75870895 C391.26203977 796.7769839 398.39417018 796.78121658 405.52647211 796.76769011 C409.15981372 796.76119202 412.79285246 796.76092746 416.42616463 796.77839661 C441.63399401 797.85252917 441.63399401 797.85252917 463.52441406 787.2746582 C467.4686703 781.88464364 470.07233579 776.0371125 472.50097656 769.85205078 C473.04597809 768.49173737 473.04597809 768.49173737 473.60198975 767.10394287 C474.79189578 764.12859584 475.97073348 761.14899919 477.14941406 758.16918945 C477.98160246 756.08158117 478.81445873 753.99423902 479.64794922 751.90715027 C481.83612452 746.42241051 484.01482007 740.9339526 486.19165039 735.44470215 C488.39546903 729.89276666 490.60898017 724.34469891 492.82128906 718.79614258 C501.79073356 696.39814225 501.79073356 696.39814225 510.48936462 673.89437866 C511.9483445 670.20168603 513.61821981 666.61697819 515.28662109 663.01538086 C517.52054262 658.06902917 519.47183619 653.01035356 521.46191406 647.9621582 C527.26970383 633.32216116 533.20321027 618.73388505 539.14941406 604.1496582 C539.57793671 603.09813568 540.00645935 602.04661316 540.44796753 600.96322632 C546.92089017 585.08101097 553.41430493 569.20718733 559.90869141 553.33374023 C560.74786284 551.28255887 561.58703015 549.23137582 562.42619324 547.18019104 C564.45888601 542.21166066 566.4916294 537.24315099 568.52441406 532.2746582 C568.52680242 533.57117813 568.52919077 534.86769806 568.5316515 536.20350647 C568.58902603 566.98847538 568.661767 597.7733654 568.75340034 628.55824995 C568.76466835 632.3483219 568.77580683 636.13839423 568.78686523 639.9284668 C568.79017076 641.06025738 568.79017076 641.06025738 568.79354306 642.21491241 C568.828904 654.42799892 568.85377492 666.64108536 568.87476108 678.85420406 C568.89653273 691.38838117 568.92959611 703.92249193 568.97311562 716.45661259 C568.99960886 724.18924591 569.01732136 731.92179655 569.0237601 739.65447301 C569.02964354 745.58645274 569.05124637 751.51831028 569.07868958 757.45023155 C569.08748389 759.88181949 569.09118951 762.31343198 569.08942223 764.74503517 C569.08777055 768.06616218 569.1044607 771.38671537 569.12568665 774.70776367 C569.12083907 775.66887086 569.11599149 776.62997805 569.11099702 777.62020969 C569.16839109 783.06570325 569.23876958 788.69882206 572.52441406 793.2746582 C577.27983833 796.4757398 582.86176013 796.70977046 588.44920349 796.65560913 C589.58311723 796.66262909 589.58311723 796.66262909 590.73993832 796.66979086 C593.25088096 796.6816733 595.76127095 796.67231043 598.2722168 796.6628418 C600.08143429 796.66691054 601.89064929 796.67225412 603.69985962 796.67877197 C608.59865658 796.69241629 613.4972634 796.68715857 618.39606357 796.67763472 C623.53146791 796.67002201 628.66685634 796.67708831 633.80226135 796.68179321 C642.42622795 796.68724656 651.05011739 796.68007069 659.67407227 796.66577148 C669.63181573 796.64945098 679.58937485 796.65473084 689.54711384 796.6712507 C698.10871975 796.68488372 706.67027031 796.68677619 715.23188359 796.67893469 C720.33999308 796.6742675 725.44801605 796.67360696 730.55611992 796.68354416 C735.36034227 796.69223779 740.16432802 796.6861482 744.96852493 796.66886139 C746.7272725 796.66490911 748.48604012 796.66600893 750.24477959 796.67264938 C762.69719617 796.81041939 762.69719617 796.81041939 774.52441406 793.2746582 C779.31584424 787.58483487 778.66653222 780.41820868 778.64466858 773.37223816 C778.645523 772.36749571 778.64637743 771.36275325 778.64725775 770.32756406 C778.64890625 766.95729026 778.64340142 763.5870661 778.63793945 760.21679688 C778.63765742 757.80229697 778.63781563 755.38779698 778.63838196 752.97329712 C778.63860976 747.77319546 778.63577135 742.57310505 778.63014412 737.37300682 C778.62201341 729.85455908 778.61941229 722.3361174 778.61815613 714.81766573 C778.61596808 702.61916304 778.60931469 690.42066703 778.59985352 678.22216797 C778.59067301 666.37320998 778.5835953 654.5242538 778.5793457 642.67529297 C778.57908298 641.94479267 778.57882026 641.21429237 778.57854957 640.4616557 C778.57724452 636.79691142 778.57598082 633.13216714 778.57473767 629.46742284 C778.56437275 599.06982984 778.54668676 568.67224495 778.52441406 538.2746582 C780.24777198 538.28018896 780.24777198 538.28018896 782.00594521 538.28583145 C809.2795489 538.37246562 836.5531376 538.43842162 863.82685063 538.47891952 C867.18388373 538.48392234 870.54091655 538.48909963 873.89794922 538.49438477 C874.90043499 538.49595863 874.90043499 538.49595863 875.923173 538.49756429 C886.74413004 538.51496881 897.56500207 538.54650673 908.38590868 538.58326939 C919.48943061 538.62067753 930.59291787 538.64259438 941.69650114 538.65101218 C947.93313461 538.65623159 954.16957526 538.66851775 960.406147 538.69757843 C966.2747848 538.7247034 972.14315011 538.73310899 978.01184464 538.72708893 C980.16694112 538.72819046 982.3220466 538.73616149 984.47708893 538.7514801 C987.41805525 538.77136196 990.35799087 538.7666036 993.29898071 538.75567627 C994.15307608 538.76732764 995.00717145 538.778979 995.8871485 538.79098344 C1001.18509395 538.73772362 1004.46578271 538.00923416 1008.52441406 534.2746582 C1010.50843049 530.11644609 1010.77802191 526.3891006 1010.7918396 521.82299805 C1010.80036957 520.5444696 1010.80889954 519.26594116 1010.81768799 517.94866943 C1010.81698907 516.5443114 1010.81606607 515.13995346 1010.81494141 513.7355957 C1010.82093 512.24692448 1010.8277363 510.75825636 1010.83529663 509.26959229 C1010.85292621 505.23659879 1010.85765061 501.20369023 1010.8589282 497.17066193 C1010.86035162 494.64955263 1010.86462474 492.1284648 1010.86992264 489.60736084 C1010.88840998 480.80829501 1010.89659452 472.00928969 1010.89501953 463.21020508 C1010.89381717 455.0133122 1010.91494134 446.81668222 1010.94650686 438.61985588 C1010.97266427 431.57595012 1010.98338712 424.5321303 1010.98210871 417.48817635 C1010.98159909 413.2838325 1010.98728255 409.07972262 1011.00846481 404.87542725 C1011.02783936 400.92232556 1011.02797737 396.96968131 1011.01343155 393.01656342 C1011.01134164 391.5677702 1011.01605532 390.11894838 1011.02815247 388.67020416 C1011.04362192 386.68896688 1011.03189025 384.70757338 1011.01889038 382.72631836 C1011.02052468 381.06495346 1011.02052468 381.06495346 1011.022192 379.37002563 C1010.39462653 375.4675913 1009.00913735 373.32222836 1006.52441406 370.2746582 C1002.36871649 367.73470308 998.27522838 368.0020661 993.53948975 368.03414917 C992.62135632 368.03244032 991.70322289 368.03073147 990.75726724 368.02897084 C987.67403681 368.02567085 984.59102295 368.03668809 981.5078125 368.04760742 C979.30035406 368.04817143 977.09289524 368.04785519 974.88543701 368.04672241 C968.88583249 368.04614748 962.88630759 368.05792462 956.88672161 368.07187033 C950.61932972 368.08435419 944.3519361 368.08554633 938.08453369 368.08792114 C927.56285311 368.09343547 917.04119721 368.1059366 906.51953125 368.1237793 C895.68229313 368.14213804 884.845063 368.15627164 874.0078125 368.16479492 C873.33296381 368.16533092 872.65811512 368.16586691 871.96281648 368.16641915 C866.09258048 368.17104486 860.22234426 368.17535045 854.352108 368.17962456 C829.07618249 368.19844302 803.80033452 368.23828416 778.52441406 368.2746582 C778.52441406 316.4646582 778.52441406 264.6546582 778.52441406 211.2746582 C812.31203125 211.32686523 812.31203125 211.32686523 846.78222656 211.38012695 C861.01920642 211.39544848 875.25618122 211.41003205 889.49316406 211.42114258 C896.96972676 211.42701633 904.44628927 211.43307781 911.92285156 211.43945312 C912.85993572 211.44024437 913.79701988 211.44103562 914.76250052 211.44185084 C929.89721515 211.45490395 945.03189562 211.47855826 960.16658999 211.50611659 C975.69524724 211.53415676 991.2238866 211.55083152 1006.75256813 211.55692369 C1016.33701688 211.56104301 1025.92136918 211.57406039 1035.50578825 211.5984076 C1042.0753864 211.61424765 1048.64493458 211.61906249 1055.21455045 211.61516234 C1059.00665893 211.61323809 1062.79859867 211.61621803 1066.59067726 211.63227463 C1070.70062786 211.64955025 1074.81021797 211.6436312 1078.92019653 211.63542175 C1080.1205863 211.64416028 1081.32097607 211.6528988 1082.55774128 211.66190213 C1090.50048661 211.69177872 1090.50048661 211.69177872 1097.52441406 208.2746582 C1099.95110145 205.06853627 1099.7801251 201.91666727 1099.7918396 197.98757935 C1099.80036957 196.69497192 1099.80889954 195.4023645 1099.81768799 194.07058716 C1099.81698898 192.64007556 1099.81606593 191.20956406 1099.81494141 189.77905273 C1099.82092645 188.27097236 1099.82773194 186.76289505 1099.83529663 185.25482178 C1099.85296631 181.15972868 1099.85765241 177.06471915 1099.8589282 172.96959162 C1099.8603498 170.41063601 1099.86461956 167.85170165 1099.86992264 165.29275131 C1099.88842604 156.36401775 1099.89659285 147.4353439 1099.89501953 138.5065918 C1099.89381801 130.18591002 1099.91492158 121.86548759 1099.94650686 113.54487145 C1099.97266502 106.3990962 1099.98338702 99.25340568 1099.98210871 92.10758293 C1099.98159894 87.84061242 1099.98729014 83.5738724 1100.00846481 79.30694962 C1100.0278396 75.29313924 1100.02797715 71.27977939 1100.01343155 67.26595306 C1100.01134139 65.79458584 1100.01605678 64.32319048 1100.02815247 62.85187149 C1100.04361901 60.83987285 1100.03189157 58.82772042 1100.01889038 56.81570435 C1100.02052468 55.12831996 1100.02052468 55.12831996 1100.022192 53.406847 C1099.38855341 49.41977658 1098.15661631 47.32468244 1095.52441406 44.2746582 C1089.95055003 41.63736078 1084.2299226 41.99544442 1078.19869232 42.02018261 C1077.0471611 42.01697613 1075.89562988 42.01376965 1074.70920378 42.01046601 C1071.50751967 42.00358621 1068.30598501 42.00567477 1065.10430343 42.01152173 C1061.62315039 42.01568861 1058.14201886 42.00829204 1054.66087103 42.00236923 C1048.55791308 41.99359854 1042.45498868 41.99229819 1036.35202599 41.9958725 C1027.27681046 42.00117357 1018.20162749 41.99509024 1009.12641551 41.98678956 C991.97685061 41.97153531 974.82730046 41.96984592 957.6777302 41.97231259 C944.43755135 41.97414392 931.19737734 41.97238903 917.9571991 41.96808815 C916.05626475 41.96748576 914.1553304 41.96688456 912.25439605 41.96628455 C909.39002681 41.96537731 906.52565758 41.96446865 903.66128834 41.9635522 C877.02441834 41.95512061 850.38755016 41.95078844 823.75067902 41.95495892 C822.24390695 41.95519348 822.24390695 41.95519348 820.70669505 41.95543278 C815.61519082 41.95623859 810.52368659 41.95708436 805.43218237 41.95794608 C804.42095756 41.95811717 803.40973275 41.95828826 802.36786477 41.95846453 C800.3229226 41.95881119 798.27798043 41.95915972 796.23303827 41.95951012 C764.40453409 41.96486887 732.57605761 41.95693336 700.74755859 41.93847656 C665.00446865 41.91777413 629.26139586 41.9070304 593.51829958 41.91105205 C589.7094094 41.91144741 585.90051921 41.91180895 582.09162903 41.91214943 C581.15375339 41.91224016 580.21587776 41.91233089 579.24958165 41.91242437 C565.07419204 41.91359171 550.89881973 41.90693178 536.72343445 41.89633751 C520.60862873 41.88430621 504.49386117 41.88270268 488.3790549 41.89512768 C479.35536246 41.9017733 470.33176118 41.90008611 461.30807596 41.88653916 C455.28568762 41.87832472 449.26336792 41.88095287 443.24098522 41.89251443 C439.8062495 41.8988008 436.37169232 41.90029513 432.9369666 41.8886511 C429.24118739 41.87862895 425.5458949 41.88689548 421.8501358 41.89992809 C420.24232572 41.88896407 420.24232572 41.88896407 418.60203463 41.87777856 C413.18991286 41.91762819 409.1368161 42.09925443 404.52441406 45.2746582 C400.19854239 51.76346571 401.37721171 60.39887134 401.37965393 67.92701721 C401.37612709 69.20379473 401.37260024 70.48057225 401.36896652 71.79604 C401.35930539 75.32924839 401.35572403 78.86244061 401.35312355 82.39566028 C401.34921785 86.21127073 401.33958054 90.02686707 401.33056641 93.84246826 C401.31564332 100.45465875 401.30409098 107.06684812 401.29461861 113.67904854 C401.28071204 123.26308876 401.25951719 132.84710289 401.23619007 142.43112432 C401.19828065 158.01299597 401.1633214 173.59487237 401.1315918 189.17675781 C401.1296913 190.10907213 401.12779081 191.04138644 401.12583273 192.0019527 C401.09905828 205.20315765 401.07516901 218.40436625 401.05244773 231.60557871 C401.05005178 232.99722838 401.05005178 232.99722838 401.04760742 234.41699219 C401.04601396 235.34361786 401.04442049 236.27024353 401.04277874 237.22494877 C401.01591657 252.73132587 400.98147499 268.23767541 400.94095367 283.74402279 C400.91630904 293.28969422 400.89791002 302.83533616 400.88779806 312.38103425 C400.8803493 318.93994635 400.86573741 325.4988188 400.84573383 332.05770452 C400.83445742 335.82951499 400.82620083 339.60126189 400.82674217 343.37309074 C400.82612672 388.02498952 400.82612672 388.02498952 394.64990234 405.87060547 C394.04572742 407.71495843 393.4415586 409.5593134 392.83759463 411.40373546 C392.1944698 413.35301851 391.54002279 415.29815032 390.88217926 417.24251175 C389.47755667 421.39893323 388.1151104 425.56855189 386.75726318 429.740448 C383.98076489 438.25481458 381.16588303 446.75620077 378.34207678 455.2549789 C377.50415666 457.77695873 376.66682504 460.29913332 375.82962418 462.82135201 C373.19324551 470.762927 370.55434209 478.70365672 367.91193664 486.64322847 C364.8903286 495.72238273 361.87771518 504.80445847 358.87249649 513.88905042 C356.52468767 520.98442463 354.16872149 528.0770579 351.80671418 535.16771799 C350.40589095 539.37355829 349.0084116 543.5804342 347.61962509 547.79026604 C346.31718847 551.73766291 345.00454248 555.68152335 343.68440247 559.62303352 C343.2063398 561.05596926 342.73176703 562.49007563 342.26124954 563.92550659 C333.02590835 592.0726184 333.02590835 592.0726184 321.52441406 599.2746582 C317.92845278 600.91838849 314.31793549 602.1739151 310.52441406 603.2746582 C309.53441406 603.6046582 308.54441406 603.9346582 307.52441406 604.2746582 C302.84123131 604.53999434 298.15178531 604.50623946 293.46191406 604.5246582 C291.5331543 604.5555957 291.5331543 604.5555957 289.56542969 604.5871582 C278.70676055 604.63150193 270.7661021 602.85817806 261.52441406 597.2746582 C260.86441406 597.2746582 260.20441406 597.2746582 259.52441406 597.2746582 C259.25113281 596.69200195 258.97785156 596.1093457 258.69628906 595.5090332 C257.54974848 593.3229625 256.24569509 591.50218647 254.77441406 589.5246582 C246.59698629 577.29206239 242.99792292 561.01339061 238.35253906 547.13793945 C237.6699894 545.1063407 236.98716733 543.07483346 236.30409241 541.04341125 C234.49628872 535.66512639 232.69167421 530.28577688 230.88772964 524.90619659 C227.90874019 516.02517442 224.92380721 507.1461463 221.93964577 498.26686096 C221.20227611 496.07269576 220.46502089 493.8784921 219.72788048 491.68424988 C215.36298168 478.69164957 210.98525224 465.70371976 206.55957031 452.73168945 C206.13837921 451.49645035 205.71718811 450.26121124 205.28323364 448.98854065 C203.45331084 443.62542942 201.61871702 438.26397509 199.77734375 432.90478516 C196.78155218 424.15907066 193.88012055 415.39392876 191.19238281 406.5480957 C190.9508699 405.76069 190.70935699 404.9732843 190.46052551 404.16201782 C186.06964994 389.45238426 185.37271935 374.82104371 185.38638306 359.52772522 C185.38356178 358.21804903 185.3807405 356.90837284 185.37783372 355.55900949 C185.37017474 351.96704868 185.36846645 348.37510708 185.36778259 344.78313911 C185.36592594 340.89295694 185.35831021 337.00278557 185.3513031 333.11260986 C185.33983133 326.38537293 185.33155948 319.65813843 185.32518387 312.93089485 C185.31481359 302.29607132 185.29424192 291.66127852 185.27206421 281.026474 C185.26458672 277.38176451 185.25717277 273.73705489 185.24977684 270.09234524 C185.24792627 269.18181181 185.24607571 268.27127838 185.24416906 267.33315303 C185.22328543 256.99261279 185.20443302 246.65206922 185.18652344 236.31152344 C185.18488526 235.36727052 185.18324707 234.4230176 185.18155925 233.45015096 C185.15522731 218.12040764 185.13660492 202.79066192 185.11993153 187.4609055 C185.10251533 171.70237721 185.07368271 155.9438962 185.03504217 140.18540567 C185.01165447 130.47414722 184.99764872 120.76296579 184.99571453 111.05167895 C184.99360631 104.40368877 184.98068683 97.75577539 184.95923521 91.10781968 C184.94720373 87.27298074 184.94005669 83.43829425 184.94594765 79.60343742 C184.95221944 75.44637699 184.93542897 71.28972722 184.91641235 67.13270569 C184.9247069 65.31579628 184.9247069 65.31579628 184.93316901 63.46218163 C184.87891803 56.61007059 184.78502197 50.65171639 179.77441406 45.4621582 C174.2000952 42.52015658 168.56053902 41.98093394 162.36474609 42.00723267 C161.17486934 42.000436 161.17486934 42.000436 159.96095467 41.99350202 C157.31798512 41.98089907 154.67522272 41.9824757 152.03222656 41.98413086 C150.13124325 41.9781432 148.23026237 41.9713371 146.32928467 41.96377563 C141.1764879 41.94613645 136.02375758 41.94142124 130.87093353 41.94014406 C127.65045991 41.93872117 124.43000313 41.93444902 121.20953369 41.92914963 C109.97138396 41.91065894 98.73328163 41.90247815 87.49511719 41.90405273 C77.02325808 41.90525511 66.55160476 41.88413144 56.07979774 41.85256541 C47.08343347 41.82641419 38.08713648 41.8156849 29.09073448 41.81696355 C23.71994154 41.81747336 18.3493317 41.81177923 12.97857666 41.79060745 C7.92893399 41.77124364 2.87964951 41.77108795 -2.1700058 41.78564072 C-4.02151767 41.78773194 -5.87305187 41.78300925 -7.72452545 41.7709198 C-10.25541008 41.755466 -12.78505964 41.76477556 -15.31591797 41.78018188 C-16.04559721 41.76989476 -16.77527645 41.75960763 -17.52706718 41.74900877 C-23.05336923 41.82316799 -26.21208633 42.89523078 -30.47558594 46.2746582 Z " fill="#2B1E1F" transform="translate(97.4755859375,25.725341796875)"/>
<path d="M0 0 C0.98048588 -0.00526326 1.96097175 -0.01052652 2.97116932 -0.01594928 C4.58643167 -0.00935455 4.58643167 -0.00935455 6.23432559 -0.0026266 C7.38324952 -0.00583308 8.53217346 -0.00903955 9.71591327 -0.0123432 C12.91961574 -0.01923858 16.12316965 -0.01712443 19.3268697 -0.01128747 C22.80674922 -0.00712925 26.28660698 -0.01451225 29.76648128 -0.02043998 C35.87033435 -0.02922014 41.97415387 -0.03050767 48.07801169 -0.02693671 C57.1546438 -0.02164053 66.23124331 -0.02771407 75.30787188 -0.03601964 C92.4603692 -0.05128279 109.6128518 -0.05296231 126.76535449 -0.05049662 C140.00890974 -0.04866584 153.25246014 -0.05041903 166.49601477 -0.05472106 C168.3969312 -0.05532345 170.29784763 -0.05592465 172.19876405 -0.05652466 C175.06307489 -0.05743189 177.92738572 -0.05834055 180.79169655 -0.05925701 C207.4328489 -0.06769017 234.07399942 -0.07201976 260.71515292 -0.06785029 C261.72007444 -0.06769392 262.72499597 -0.06753754 263.76036966 -0.06737643 C268.85400758 -0.06657061 273.94764549 -0.06572484 279.04128341 -0.06486312 C280.55877085 -0.06460649 280.55877085 -0.06460649 282.1069146 -0.06434468 C284.15273516 -0.06399802 286.19855572 -0.06364949 288.24437629 -0.06329909 C320.07927699 -0.05794155 351.91415001 -0.06587175 383.74904555 -0.08433264 C419.49542669 -0.10503739 455.24179066 -0.11577824 490.98817813 -0.11175716 C494.79795994 -0.1113618 498.60774175 -0.11100025 502.41752356 -0.11065978 C503.35562478 -0.11056905 504.29372599 -0.11047831 505.26025451 -0.11038483 C519.43738083 -0.10921763 533.61448985 -0.1158765 547.79161185 -0.1264717 C563.91119517 -0.13850611 580.03074033 -0.14010304 596.1503242 -0.12768153 C605.17601792 -0.1210382 614.20162048 -0.12271781 623.22730696 -0.13627005 C629.25237655 -0.14448915 635.27737755 -0.1418502 641.30244152 -0.13029478 C644.73792367 -0.124013 648.17322741 -0.12250242 651.60869954 -0.13415811 C655.30701359 -0.14419271 659.00484252 -0.13590285 662.70313662 -0.12288111 C663.77295469 -0.13019046 664.84277276 -0.13749981 665.94500956 -0.14503065 C671.75969579 -0.10233651 676.12010533 0.21904588 681.15749282 3.251849 C685.25574778 7.59949067 684.49975674 12.9491963 684.34499282 18.564349 C684.33145766 19.49569665 684.3179225 20.42704431 684.30397719 21.38661462 C684.26876164 23.67562546 684.2195138 25.96343358 684.15749282 28.251849 C683.60258471 28.25224918 683.04767661 28.25264936 682.47595311 28.25306167 C622.06664023 28.29673295 561.65733079 28.34410348 501.24803847 28.41083032 C500.34577728 28.41182589 499.44351608 28.41282145 498.51391364 28.41384719 C478.90571193 28.43550533 459.29751103 28.457828 439.68931086 28.48083528 C430.07356176 28.49211387 420.45781249 28.50324561 410.84206313 28.51430017 C409.40673327 28.51595402 409.40673327 28.51595402 407.94240684 28.51764128 C376.92264881 28.55331472 345.90289187 28.57928942 314.8831207 28.60023868 C283.00833243 28.62181657 251.13356839 28.65317091 219.25880237 28.69684013 C214.75751225 28.70300244 210.25622199 28.7090529 205.75493163 28.71503526 C204.42604379 28.71680658 204.42604379 28.71680658 203.07030973 28.71861369 C188.80492481 28.73734081 174.53955155 28.745751 160.27415585 28.75031024 C145.9353046 28.75511287 131.59649781 28.77076751 117.25767042 28.79751465 C108.73698124 28.81307864 100.21637972 28.82030672 91.69567711 28.81561829 C86.00324148 28.81330603 80.31088868 28.8218424 74.61847914 28.83917311 C71.3753732 28.84873706 68.13248603 28.8519575 64.88936742 28.84524462 C61.39229139 28.83874249 57.89573814 28.85062295 54.39870566 28.86708814 C53.39659037 28.86081144 52.39447508 28.85453475 51.36199266 28.84806785 C41.11263084 28.93708535 31.2229269 31.40755053 23.65749282 38.6971615 C15.35318224 48.13837173 14.86079503 58.57415641 14.89920729 70.52040368 C14.89634942 71.86471685 14.89260966 73.20902838 14.8880688 74.55333692 C14.87812182 78.23271645 14.88045222 81.91200026 14.88479573 85.59138685 C14.88727821 89.56569753 14.87819536 93.53998344 14.87041396 97.51428491 C14.85838179 104.39876498 14.85326167 111.28322193 14.85253257 118.16771203 C14.85120465 128.13888635 14.83607216 138.11000475 14.8170374 148.08115929 C14.7862063 164.28274295 14.76203799 180.48432802 14.74416274 196.68593103 C14.74309006 197.65514108 14.74201738 198.62435113 14.74091219 199.62293118 C14.72910167 210.42686853 14.7188952 221.23080644 14.71047133 232.03474694 C14.70739756 235.94809738 14.70430873 239.86144781 14.70119399 243.77479821 C14.70042865 244.74039753 14.69966331 245.70599684 14.69887478 246.70085675 C14.685768 262.83326774 14.66109221 278.96563835 14.62745059 295.09801942 C14.60721986 305.03610909 14.596863 314.97411221 14.59943979 324.91222262 C14.60047926 331.7313305 14.59076772 338.5503702 14.57280076 345.36945426 C14.56281177 349.29650639 14.55756673 353.22340757 14.56556815 357.15046769 C14.62133627 387.61240891 14.62133627 387.61240891 11.15749282 400.251849 C10.79328844 401.61250324 10.79328844 401.61250324 10.42172641 403.00064546 C9.72367989 405.41948235 8.95315291 407.79665021 8.1423561 410.17982751 C7.85217982 411.06118057 7.56200354 411.94253362 7.26303405 412.85059434 C6.30262913 415.75978807 5.32777903 418.66391494 4.35280532 421.56825525 C3.64873417 423.69094956 2.94565103 425.81397179 2.24346083 427.93728906 C0.71274877 432.56092636 -0.82388141 437.1825425 -2.36435777 441.80293542 C-4.95656799 449.58439031 -7.52243093 457.37439275 -10.08567125 465.16542321 C-14.26115695 477.85315694 -18.45537045 490.53458054 -22.66358644 503.21149522 C-25.08174486 510.4968375 -27.4950867 517.78370675 -29.89719468 525.07435876 C-32.04246143 531.58546084 -34.19621024 538.09368284 -36.36028451 544.59855926 C-37.49084891 547.9977305 -38.61746026 551.39808246 -39.73374635 554.80197221 C-40.96523484 558.55656351 -42.21581274 562.30464272 -43.46799546 566.05238611 C-43.82336885 567.14569741 -44.17874223 568.23900872 -44.5448845 569.36545068 C-50.0277784 585.61749337 -50.0277784 585.61749337 -55.70922357 589.54095632 C-61.31665799 592.13776885 -67.86336595 591.69385426 -73.90500718 591.626849 C-74.95494859 591.63845056 -76.00489 591.65005212 -77.08664781 591.66200525 C-84.28235164 591.63483456 -89.71617348 591.30725366 -95.08078843 586.064349 C-97.2564704 582.59097645 -98.66248125 579.1022337 -100.03000718 575.251849 C-100.28975328 574.55317712 -100.54949937 573.85450525 -100.81711656 573.1346615 C-102.13203418 569.53307836 -103.22660774 566.05113228 -103.84250718 562.251849 C-102.98528062 561.839349 -102.12805406 561.426849 -101.24485093 561.001849 C-83.21301954 551.89445276 -78.01388521 536.70523996 -71.99240953 518.41444665 C-71.43720865 516.75042938 -70.88122173 515.0866742 -70.32451707 513.42315942 C-68.82680838 508.94022438 -67.34023757 504.45366989 -65.85591155 499.96628886 C-64.29311494 495.2476079 -62.72046261 490.53221283 -61.14905626 485.81639367 C-58.51219221 477.89843705 -55.8820767 469.97826582 -53.25656968 462.0565365 C-49.89821959 451.92377335 -46.52878523 441.79473302 -43.1557911 431.66683656 C-40.24145116 422.91582221 -37.33221373 414.16311298 -34.42378742 405.41013175 C-33.4957454 402.6178558 -32.56702113 399.82580747 -31.63820344 397.03378946 C-30.17256257 392.62698781 -28.71013089 388.21913287 -27.2500599 383.8104828 C-26.71736909 382.20346303 -26.18371907 380.5967608 -25.64897805 378.99042207 C-24.22749924 374.71910509 -22.8273726 370.44204457 -21.4582141 366.15365916 C-20.88441703 364.38130113 -20.28251476 362.61811033 -19.67846376 360.85583383 C-13.33829914 341.14024623 -14.53755491 319.63415659 -14.540492 299.16997689 C-14.5388281 295.33445615 -14.52565262 291.49897098 -14.51395494 287.66347009 C-14.49524267 281.04332445 -14.48342929 274.42319684 -14.47641641 267.80302888 C-14.46617184 258.22418908 -14.44406193 248.64540365 -14.41903049 239.06659239 C-14.37859973 223.50913406 -14.34606716 207.9516705 -14.31931382 192.39418298 C-14.31771652 191.46641653 -14.31611922 190.53865009 -14.31447352 189.58276951 C-14.31287462 188.65379844 -14.31127572 187.72482738 -14.30962837 186.76770568 C-14.28688444 173.5631156 -14.26224656 160.35853087 -14.23532945 147.15394861 C-14.2334333 146.22278274 -14.23153716 145.29161687 -14.22958355 144.33223385 C-14.19781116 128.80851518 -14.16207203 113.2848071 -14.12428796 97.76110196 C-14.10127871 88.20287943 -14.08231397 78.64466408 -14.06862123 69.08642357 C-14.05909538 62.54880256 -14.04625709 56.01119375 -14.03081238 49.47358406 C-14.02205 45.70354105 -14.01494636 41.93351311 -14.01217157 38.16346055 C-14.00914608 34.07702016 -13.99855526 29.99063391 -13.98726732 25.904208 C-13.98765345 24.71395582 -13.98803958 23.52370363 -13.98843741 22.29738319 C-13.93181077 7.64165013 -13.93181077 7.64165013 -11.03000718 3.939349 C-7.34267205 1.09483332 -4.67565682 0.00198766 0 0 Z " fill="#FEFEFE" transform="translate(512.8425071835518,67.74815100431442)"/>
<path d="M0 0 C9.98629158 2.46133422 17.01513424 5.12903146 23 14 C26.71266173 21.29031757 28.1183516 28.244127 28.14044189 36.4112854 C28.14615204 37.68114288 28.15186218 38.95100037 28.15774536 40.25933838 C28.15899051 41.65417471 28.16011565 43.04901114 28.16113281 44.44384766 C28.16576569 45.9227816 28.17079098 47.40171436 28.17617798 48.88064575 C28.18926075 52.88923237 28.19573913 56.89780226 28.20018864 60.90640688 C28.20312668 63.41549559 28.2072329 65.9245798 28.21169281 68.43366623 C28.22535831 76.29747928 28.235029 84.16128197 28.2388947 92.02510607 C28.24337004 101.07737283 28.26089753 110.12948819 28.2898953 119.18170893 C28.3115755 126.19512601 28.32160239 133.20850069 28.32293582 140.22195089 C28.32397953 144.40297681 28.32979397 148.58386023 28.34775543 152.76485062 C28.36434566 156.70312506 28.3663391 160.64115157 28.35761642 164.5794487 C28.35685181 166.01604633 28.36111182 167.4526579 28.37107468 168.88922119 C28.45153672 181.22565689 27.64945362 193.46099645 19 203 C7.57950742 213.15154896 -6.5452426 212.42585429 -20.88354492 212.34057617 C-22.88514188 212.33972883 -24.88673977 212.34020714 -26.88833618 212.34190369 C-32.29461989 212.34276086 -37.70070202 212.32518014 -43.10693908 212.30418181 C-48.76702702 212.2853686 -54.42712011 212.28366092 -60.0872345 212.28010559 C-70.79315942 212.27079875 -81.49899193 212.2462034 -92.20487624 212.21605712 C-104.39835669 212.18247071 -116.59184166 212.16601644 -128.78535688 212.15097082 C-153.85695573 212.11965263 -178.92847267 212.06691866 -204 212 C-203.99723462 213.15368198 -203.99446924 214.30736397 -203.99162006 215.49600601 C-203.92656585 242.91745607 -203.87713815 270.33889768 -203.84680401 297.76040913 C-203.84305215 301.13975206 -203.83916916 304.51909482 -203.83520508 307.8984375 C-203.83441815 308.57116871 -203.83363122 309.24389993 -203.83282044 309.93701693 C-203.81978696 320.81209957 -203.79614453 331.68713435 -203.76854161 342.56218866 C-203.74043002 353.73128268 -203.72403598 364.9003604 -203.71773452 376.06949019 C-203.71382952 382.33869475 -203.7046755 388.60779097 -203.68280983 394.87696075 C-203.6623773 400.7833412 -203.65617991 406.68956916 -203.66067696 412.5959816 C-203.65985478 414.75822657 -203.65392969 416.92047689 -203.64238358 419.08269119 C-203.48881941 449.33610541 -203.48881941 449.33610541 -214.26953125 461.39453125 C-225.52118967 471.83342879 -243.86724662 470.15019578 -258.04760742 470.14526367 C-259.77004061 470.14825966 -261.49247313 470.1516632 -263.21490479 470.15544128 C-267.87425777 470.16424166 -272.53359237 470.16661775 -277.19295287 470.16725707 C-280.1102942 470.16796993 -283.02763091 470.17010873 -285.94497108 470.17275429 C-296.14080729 470.18199525 -306.33663045 470.18609082 -316.5324707 470.18530273 C-326.00669674 470.18470258 -335.48086573 470.19524545 -344.95507735 470.2110464 C-353.11337461 470.22416333 -361.27165332 470.22948488 -369.42996103 470.22884732 C-374.29172386 470.22859352 -379.15343597 470.23137942 -384.01518822 470.24202538 C-388.59284955 470.25177629 -393.17041239 470.25173809 -397.74807739 470.24450874 C-399.41765297 470.24347147 -401.08723492 470.2457741 -402.7567997 470.2518692 C-434.26565894 470.35934709 -434.26565894 470.35934709 -444.8125 461.6875 C-450.17676776 455.0971139 -454.16433898 449.87430496 -454 441 C-452.6847295 440.99780016 -452.6847295 440.99780016 -451.34288788 440.99555588 C-429.94842946 440.95840788 -408.55412844 440.89928766 -387.15979767 440.81609726 C-376.81339783 440.77638876 -366.46707315 440.74395481 -356.12060547 440.72900391 C-347.09635622 440.71594479 -338.07227292 440.68887212 -329.04811716 440.64538693 C-324.27555459 440.62286749 -319.50319597 440.60708356 -314.73057556 440.60811615 C-310.22591938 440.60886843 -305.7217124 440.59069256 -301.21717262 440.55883217 C-299.5758806 440.55040804 -297.93453774 440.54853142 -296.29323387 440.55419731 C-278.59855763 440.60707985 -261.22952979 437.6347152 -247.83984375 425.01171875 C-234.52451723 410.45249761 -233.25167952 392.43781699 -233.34057617 373.70092773 C-233.33210324 371.61961921 -233.32145019 369.53831862 -233.30880737 367.45703125 C-233.2808865 361.8609964 -233.28309245 356.2653478 -233.29110122 350.66926455 C-233.29424531 344.80094282 -233.2691365 338.93274006 -233.24714661 333.06446838 C-233.20982665 321.97627318 -233.19756576 310.88820059 -233.1945222 299.79994875 C-233.18981826 287.16612073 -233.15685219 274.53241454 -233.12162435 261.89864051 C-233.04984789 235.93244173 -233.01319838 209.96629002 -233 184 C-231.59416216 183.99641747 -231.59416216 183.99641747 -230.15992355 183.99276257 C-207.32317001 183.93388864 -184.4865213 183.85795712 -161.64988327 183.76428509 C-150.6061168 183.71937765 -139.56238222 183.67995134 -128.51855469 183.65356445 C-118.8893511 183.63054346 -109.26024884 183.59709966 -99.63112569 183.55129844 C-94.53567215 183.52742153 -89.44031863 183.50865654 -84.34481049 183.50238609 C-79.54147604 183.49631017 -74.7383973 183.47622024 -69.93515778 183.44572449 C-68.17930379 183.4369843 -66.42341634 183.43321328 -64.6675415 183.43499184 C-46.97774691 183.44724459 -29.35966826 180.68910576 -16 168 C-2.65965169 154.49495603 -0.71428007 135.56728815 -0.68115234 117.4987793 C-0.67110672 116.21916321 -0.6610611 114.93954712 -0.65071106 113.62115479 C-0.62372946 110.15717134 -0.60835784 106.69322778 -0.59528303 103.2291677 C-0.57951089 99.59233325 -0.55276669 95.95557868 -0.5272522 92.31880188 C-0.48071107 85.45210915 -0.44384871 78.58540098 -0.41057932 71.71863252 C-0.37218216 63.89255354 -0.32281893 56.06655529 -0.27259517 48.24054468 C-0.16964281 32.16042134 -0.0802647 16.08025294 0 0 Z " fill="#5DE0E5" transform="translate(1150,422)"/>
<path d="M0 0 C1.18776006 -0.0083016 1.18776006 -0.0083016 2.39951527 -0.0167709 C5.03808136 -0.03032346 7.67569263 -0.01543789 10.3142395 -0.00050354 C12.21197917 -0.00428875 14.10971607 -0.00979045 16.00744629 -0.01687622 C21.15221787 -0.03082366 26.29665473 -0.01966508 31.44140768 -0.00316501 C36.83172959 0.01070292 42.22203241 0.00422327 47.61236572 0.0007019 C56.66603984 -0.0019993 65.71958132 0.01146613 74.77322388 0.03465271 C85.22911877 0.06124576 95.68479169 0.06301427 106.1407088 0.05126435 C116.2102198 0.0404701 126.27965077 0.04668762 136.34915543 0.06081963 C140.62884546 0.06656675 144.9084767 0.06650672 149.18816757 0.06175423 C154.23287255 0.05696808 159.27733575 0.06715392 164.32199478 0.08870888 C166.16942784 0.09425522 168.01688424 0.0947619 169.86431885 0.08975601 C191.30277716 0.03896765 191.30277716 0.03896765 197.35379028 5.93870544 C200.16215151 10.73632255 199.97886583 15.30231921 199.91629028 20.75120544 C199.91177856 21.49628357 199.90726685 22.24136169 199.90261841 23.00901794 C199.89088274 24.83978185 199.87294878 26.67050417 199.85379028 28.50120544 C199.03841105 28.5035938 198.22303181 28.50598215 197.38294411 28.50844288 C177.51777314 28.5676497 157.65272291 28.64323614 137.78768349 28.73692036 C128.18098678 28.78183333 118.57432676 28.82125835 108.96755981 28.84764099 C100.59161953 28.87065753 92.21579582 28.90409632 83.83994806 28.949907 C79.40742744 28.97378998 74.97502194 28.99255098 70.54243851 28.99881935 C66.36452384 29.00489256 62.1869035 29.02497261 58.00909805 29.05548096 C56.48138986 29.06422549 54.95364314 29.06799124 53.42591095 29.06621361 C40.91363372 29.05625744 29.95206822 30.51944046 19.85379028 38.50120544 C11.27823805 48.56291896 11.70444332 61.26983872 11.72007751 73.76062012 C11.71820711 75.10406779 11.71590549 76.44751493 11.71321219 77.79096121 C11.70711527 81.46820476 11.70722532 85.14542551 11.70840657 88.82267296 C11.70861113 92.79506473 11.70308623 96.76744927 11.698349 100.73983765 C11.69005139 108.52029741 11.68729448 116.3007496 11.68673662 124.08121342 C11.68626065 130.41425525 11.68420184 136.74729458 11.681036 143.08033562 C11.67222868 161.06727077 11.66761627 179.05419996 11.66836647 197.04113729 C11.6684264 198.49489031 11.6684264 198.49489031 11.66848755 199.97801208 C11.66852843 200.94837658 11.66856931 201.91874107 11.66861143 202.91851055 C11.66901701 218.60966706 11.65946987 234.30079948 11.64534918 249.99194903 C11.63093801 266.13454221 11.62408173 282.27712368 11.62494296 298.41972345 C11.62527349 307.46971716 11.6225903 316.51968566 11.61176491 325.56967354 C11.6025969 333.28328381 11.60053547 340.99685747 11.60727433 348.71047086 C11.61050925 352.63634301 11.61070816 356.56214519 11.60192108 360.48801041 C11.5660352 377.58681793 11.95384378 394.49227169 13.85379028 411.50120544 C13.93372117 412.24446992 14.01365205 412.9877344 14.09600508 413.75352204 C15.7237007 428.82895195 19.85864331 443.21451993 24.51345825 457.59373474 C25.20611079 459.74332162 25.87996016 461.89814991 26.55300903 464.05393982 C31.45701608 479.45192573 37.6906972 494.35487762 43.75650024 509.32069397 C45.95408038 514.74459254 48.13886425 520.17359923 50.32156372 525.60350037 C50.90047112 527.04354195 50.90047112 527.04354195 51.49107361 528.51267529 C52.29033399 530.50091805 53.08956862 532.48917117 53.88877869 534.47743416 C55.98943949 539.70218285 58.09217715 544.92609565 60.1946106 550.15013123 C73.83762954 584.05444919 87.46345824 617.96529993 100.98269653 651.91917419 C101.35231211 652.84746336 101.35231211 652.84746336 101.72939467 653.79450583 C106.74956342 666.40332776 111.76502769 679.01401855 116.77650356 691.62629795 C118.53057149 696.04048464 120.28528961 700.45441275 122.04000664 704.86834145 C123.22848276 707.85903726 124.41571632 710.85022396 125.60282898 713.84146118 C126.33313993 715.67943793 127.0635988 717.5173559 127.79421997 719.35520935 C128.13806449 720.22129601 128.48190901 721.08738268 128.83617306 721.97971439 C130.50473563 726.16917916 132.19768747 730.34605111 133.94033813 734.5052948 C134.26928699 735.29205282 134.59823586 736.07881084 134.93715286 736.88941002 C135.55383054 738.35834375 136.17515274 739.8253399 136.8020134 741.28995705 C138.02505348 744.20021404 138.85379028 746.3090468 138.85379028 749.50120544 C132.78264837 747.51226778 130.85296571 743.91499281 127.85379028 738.50120544 C125.95667032 734.57220013 124.31917883 730.55998612 122.70144653 726.50901794 C122.19390447 725.25867364 121.68565951 724.00861449 121.17680359 722.75880432 C119.38593201 718.34619171 117.61994202 713.92375637 115.85379028 709.50120544 C115.15913165 707.76560858 114.4643646 706.03005511 113.76950073 704.29454041 C108.83417407 691.96069615 103.92811949 679.61527843 99.02716064 667.26774597 C94.28562245 655.32220548 89.53538454 643.38012452 84.78347778 631.43870544 C84.53929367 630.8250316 84.29510956 630.21135776 84.04352593 629.57908773 C71.01686938 596.8420833 57.87533593 564.15133437 44.72073364 531.46556091 C43.04759867 527.30818739 41.37450507 523.15079723 39.70144653 518.99339294 C39.29679169 517.98792419 38.89213684 516.98245544 38.47521973 515.94651794 C31.97137866 499.78446233 25.48812099 483.61422988 19.01785278 467.43870544 C18.39336337 465.87776468 18.39336337 465.87776468 17.75625801 464.28528976 C13.8637226 454.55443919 9.97474098 444.82219398 6.1098938 435.08030701 C5.8491765 434.42368576 5.58845921 433.76706451 5.31984138 433.09054565 C-10.64542518 392.78934922 -17.4805138 356.34766983 -17.40765905 313.19737017 C-17.403073 309.16686714 -17.41014795 305.13638037 -17.4156189 301.10588074 C-17.42444672 293.24332415 -17.4226216 285.38080605 -17.41679361 277.51824804 C-17.41225502 271.12817793 -17.41167365 264.73811852 -17.41384125 258.34804726 C-17.41414771 257.43455776 -17.41445418 256.52106826 -17.41476993 255.57989726 C-17.41540944 253.72364832 -17.41605787 251.86739939 -17.41671512 250.01115046 C-17.42239791 232.66763915 -17.41589068 215.3241491 -17.40511438 197.98064128 C-17.39616113 183.11028816 -17.39774946 168.23996623 -17.4069519 153.36961365 C-17.41765714 136.06298539 -17.42186931 118.75637563 -17.41572738 101.44974452 C-17.41509032 99.60474925 -17.41446158 97.75975397 -17.41384125 95.91475868 C-17.4135327 95.00715862 -17.41322415 94.09955856 -17.41290624 93.16445547 C-17.41118153 86.7779744 -17.41408918 80.39150511 -17.41880035 74.00502586 C-17.42441112 66.22908172 -17.42288777 58.45317795 -17.41223887 50.67723843 C-17.40698784 46.71263211 -17.40491601 42.74809311 -17.41153717 38.78348732 C-17.41750926 35.15271298 -17.41420089 31.52206818 -17.40358207 27.89130554 C-17.40030049 25.96062117 -17.40680717 24.02992775 -17.41369653 22.09925288 C-17.35826112 9.81234192 -17.35826112 9.81234192 -15.14620972 4.50120544 C-10.27562809 0.64227913 -6.1734333 -0.08141514 0 0 Z " fill="#FDFEFE" transform="translate(82.14620971679688,67.49879455566406)"/>
<path d="M0 0 C8.73009491 1.15463577 16.20381226 3.79922349 21.75390625 10.96875 C26.02160831 17.92550571 28.11905203 25.19891401 28.14044189 33.29812622 C28.14615204 34.59336716 28.15186218 35.88860809 28.15774536 37.22309875 C28.15899066 38.65670767 28.16011577 40.09031669 28.16113281 41.52392578 C28.16576279 43.03536602 28.17078769 44.54680508 28.17617798 46.0582428 C28.18928961 50.1639179 28.19574492 54.26957665 28.20018864 58.37526941 C28.20312231 60.9429601 28.20722775 63.51064636 28.21169281 66.07833481 C28.22536659 74.11941733 28.23503294 82.16048968 28.2388947 90.20158303 C28.24337055 99.46953027 28.26089694 108.73732967 28.2898953 118.00523198 C28.31155337 125.17738714 28.32160124 132.34950084 28.32293582 139.52168834 C28.32398121 143.80104756 28.32983174 148.08026778 28.34775543 152.35959244 C28.36430684 156.38975941 28.36635757 160.41968399 28.35761642 164.44987297 C28.35684973 165.92278508 28.36113994 167.3957106 28.37107468 168.8685894 C28.4498754 181.28741419 27.13923074 192.30219864 18.40234375 201.72265625 C9.4875666 209.9876091 -1.21876904 210.15042813 -12.80697632 210.12025452 C-14.60326208 210.12153615 -14.60326208 210.12153615 -16.43583643 210.12284368 C-19.751562 210.12420444 -23.06722834 210.1210851 -26.38294673 210.11606562 C-29.96160679 210.11174271 -33.54026506 210.11320885 -37.118927 210.1139679 C-43.31648567 210.11449196 -49.5140338 210.11135739 -55.71158981 210.10573006 C-64.67218867 210.0975992 -73.63278243 210.09499821 -82.59338458 210.09374207 C-97.13175797 210.09155404 -111.67012575 210.08490071 -126.20849609 210.07543945 C-140.3302406 210.06625889 -154.45198358 210.0591812 -168.57373047 210.05493164 C-169.44435684 210.05466892 -170.3149832 210.05440619 -171.21199219 210.05413551 C-175.57971718 210.05283046 -179.94744218 210.05156676 -184.31516719 210.05032361 C-220.54344892 210.03995877 -256.77172365 210.0220718 -293 210 C-293 224.85 -293 239.7 -293 255 C-302.24 255 -311.48 255 -321 255 C-321 230.91 -321 206.82 -321 182 C-312.80857178 181.9906543 -304.61714355 181.98130859 -296.17749023 181.97167969 C-269.92835563 181.93892937 -243.67929472 181.8866141 -217.43022015 181.82207905 C-213.34874413 181.81206233 -209.26726771 181.80221807 -205.18579102 181.79248047 C-204.37328784 181.7905391 -203.56078466 181.78859772 -202.72366018 181.78659752 C-189.59058269 181.75562839 -176.45752266 181.7386111 -163.32441556 181.72680578 C-149.83533553 181.7143678 -136.34634664 181.68680689 -122.85732418 181.64538693 C-114.54274234 181.62032706 -106.22831179 181.60687721 -97.91369165 181.60857043 C-92.20177923 181.60860032 -86.49002022 181.59385944 -80.77816766 181.56783572 C-77.48918812 181.55327667 -74.20058317 181.54711109 -70.9115696 181.55419731 C-51.15210586 181.59108185 -31.67080211 180.84980874 -16 167 C-5.92940493 154.6891686 -0.94980736 140.30011592 -0.84178162 124.34317017 C-0.8319928 123.24108215 -0.82220398 122.13899414 -0.81211853 121.00350952 C-0.80636307 119.80948517 -0.8006076 118.61546082 -0.79467773 117.38525391 C-0.78477814 116.11641357 -0.77487854 114.84757324 -0.76467896 113.5402832 C-0.73774101 110.07382676 -0.71667162 106.60735687 -0.69667697 103.14085436 C-0.67474853 99.51334233 -0.64739352 95.88587126 -0.62062073 92.25839233 C-0.57078629 85.39500015 -0.52581331 78.53158511 -0.48259836 71.6681484 C-0.43314674 63.8519278 -0.3782581 56.03574832 -0.32291877 48.21956754 C-0.20924078 32.1464163 -0.10237109 16.07322731 0 0 Z " fill="#5CE0E5" transform="translate(1239,97)"/>
<path d="M0 0 C0.33 0 0.66 0 1 0 C1.00879936 0.85538864 1.00879936 0.85538864 1.01777649 1.72805786 C1.08234434 7.73193503 1.16691576 13.7353071 1.26245117 19.73876953 C1.29544558 21.97112311 1.32355435 24.20355501 1.34643555 26.43603516 C1.56277709 46.9930848 2.97163225 64.13975938 16 81 C15.34 81 14.68 81 14 81 C13.86464844 81.57105469 13.72929688 82.14210938 13.58984375 82.73046875 C9.74519165 97.21122426 1.94977675 110.29138146 -11.1875 117.9375 C-24.89296972 124.73426153 -40.23789199 125.15507625 -55.25588989 125.13371277 C-56.44160768 125.13597833 -57.62732548 125.13824388 -58.84897411 125.14057809 C-62.10916951 125.14577895 -65.36932986 125.1465689 -68.62952805 125.14538372 C-72.15798581 125.14517834 -75.68643557 125.15071151 -79.21488953 125.15544128 C-86.11661351 125.16371912 -93.01832895 125.16649483 -99.92005749 125.16705366 C-105.53559248 125.16753023 -111.15112468 125.169592 -116.76665878 125.17275429 C-132.71877507 125.18155341 -148.67088465 125.18617488 -164.62300338 125.18542381 C-165.48153336 125.18538386 -166.34006334 125.1853439 -167.22460938 125.18530273 C-168.08419848 125.18526185 -168.94378758 125.18522097 -169.82942484 125.18517885 C-183.7493838 125.1847727 -197.66931567 125.19433643 -211.58926679 125.2084411 C-225.91260623 125.22283895 -240.23593248 125.2297094 -254.55927932 125.22884732 C-262.58846232 125.22851651 -270.61761692 125.23121273 -278.64679337 125.24202538 C-285.4847185 125.25117541 -292.32260236 125.25326897 -299.160531 125.24651595 C-302.6421505 125.24327317 -306.12369105 125.24311178 -309.60530281 125.2518692 C-347.54753273 125.32978374 -347.54753273 125.32978374 -361 120 C-361.82757813 119.67386719 -362.65515625 119.34773437 -363.5078125 119.01171875 C-372.90625346 114.82984364 -380.54878586 107.32741858 -385 98 C-385 97.34 -385 96.68 -385 96 C-384.3610845 95.99940291 -383.722169 95.99880582 -383.06389242 95.99819064 C-345.14338195 95.9622474 -307.22295489 95.90553292 -269.30251816 95.82207905 C-264.74293886 95.81206235 -260.1833592 95.80221809 -255.6237793 95.79248047 C-254.71610107 95.7905391 -253.80842284 95.78859772 -252.87323921 95.78659752 C-238.20247913 95.75562982 -223.53173468 95.7386115 -208.86094809 95.72680578 C-193.79210627 95.71436706 -178.72334603 95.68680449 -163.65455574 95.64538693 C-154.3664936 95.6203292 -145.07856688 95.60687706 -135.79047047 95.60857043 C-129.40949573 95.60860033 -123.02865827 95.59385632 -116.64773709 95.56783572 C-112.9737367 95.55327927 -109.30001777 95.54490889 -105.62599373 95.55419731 C-82.41868766 95.60603343 -57.0438393 94.6531086 -39 78 C-38.32710937 77.42894531 -37.65421875 76.85789062 -36.9609375 76.26953125 C-17.23712604 58.41148574 -9.6073504 24.26507516 0 0 Z " fill="#5FE0E5" transform="translate(625,767)"/>
<path d="M0 0 C0.33 0 0.66 0 1 0 C1 6.27 1 12.54 1 19 C2.98 19.33 4.96 19.66 7 20 C15.27620638 22.98045763 21.23513081 27.62199225 25.28125 35.4921875 C29.15065047 44.5852786 29.14653988 53.23398012 29.13803101 62.98971558 C29.14085229 64.30268934 29.14367357 65.61566311 29.14658034 66.96842396 C29.15430729 70.60250029 29.15595136 74.2365577 29.15663147 77.87064123 C29.15847602 81.79453953 29.16608587 85.71842688 29.17311096 89.64231873 C29.18462447 96.44113909 29.1928754 103.239957 29.19923019 110.03878403 C29.20957618 120.79761122 29.23014619 131.55640774 29.25234985 142.31521606 C29.25982934 146.00002088 29.26724316 149.68482583 29.27463722 153.36963081 C29.27741307 154.75094525 29.27741307 154.75094525 29.280245 156.16016503 C29.301164 166.63834922 29.31999461 177.1165368 29.33789062 187.59472656 C29.3403479 189.03105274 29.3403479 189.03105274 29.34285481 190.4963956 C29.36910845 205.99442462 29.38776991 221.49245601 29.40448253 236.99049781 C29.42194014 252.92287417 29.45082563 268.85520415 29.4893719 284.78754342 C29.51269465 294.60195216 29.52675949 304.41628523 29.52869953 314.23072191 C29.53081873 320.96715471 29.54382948 327.70351247 29.56517886 334.43991153 C29.57713337 338.3184704 29.58440952 342.1968804 29.57846642 346.07545662 C29.55304124 365.18141472 30.30677475 382.85681563 36.2265625 401.1953125 C36.55975494 402.25283722 36.89294739 403.31036194 37.23623657 404.39993286 C43.03468315 422.61226562 49.21876397 440.70342648 55.33959961 458.80914307 C56.73480633 462.94039918 58.12522748 467.07325959 59.51569176 471.20611382 C60.86038302 475.20104254 62.20789384 479.1950156 63.55629349 483.188694 C64.19743464 485.08862447 64.8377413 486.98883677 65.4771843 488.88933945 C66.36394239 491.5233894 67.2544493 494.15614189 68.14599609 496.78857422 C68.40675934 497.56556168 68.66752258 498.34254913 68.93618774 499.14308167 C70.09455048 502.55134494 71.26639676 505.83958941 73 509 C73.33 509.66 73.66 510.32 74 511 C69.71 511 65.42 511 61 511 C60.7097998 510.09386963 60.41959961 509.18773926 60.12060547 508.25415039 C54.36408473 490.30191247 48.50191762 472.39198891 42.375 454.5625 C34.83560456 432.61770323 27.50565405 410.60453423 20.1879425 388.5849762 C17.89655987 381.69103663 15.59816137 374.79948958 13.29296875 367.91015625 C12.73516967 366.24194976 12.17738906 364.57373709 11.61962891 362.90551758 C10.85535088 360.61971601 10.09068484 358.33404993 9.32440186 356.04891968 C7.86766388 351.7042021 6.43017496 347.35355395 5 343 C4.70077637 342.13181641 4.40155273 341.26363281 4.09326172 340.36914062 C0.24267391 328.66642073 -0.3001645 316.3465293 -0.24050903 304.12367249 C-0.24221788 302.81228646 -0.24392673 301.50090044 -0.24568737 300.14977545 C-0.25010464 296.55791944 -0.24223598 292.96618544 -0.23213124 289.37434494 C-0.22341672 285.48295707 -0.22642251 281.59157495 -0.22793579 277.70018005 C-0.22897963 270.97401896 -0.22275576 264.24789695 -0.21146011 257.52174568 C-0.19513965 247.7971129 -0.18999044 238.07249883 -0.18748413 228.34785383 C-0.18311725 212.56660866 -0.1698356 196.78538429 -0.15087891 181.00415039 C-0.13249395 165.68286238 -0.11835028 150.36158003 -0.10986328 135.0402832 C-0.10933783 134.09435946 -0.10881239 133.14843572 -0.10827102 132.17384762 C-0.10566076 127.42797252 -0.10313339 122.68209737 -0.10064721 117.9362222 C-0.0799461 78.62413358 -0.04474815 39.31206817 0 0 Z " fill="#5EDFE3" transform="translate(323,79)"/>
<path d="M0 0 C20.10582977 -0.09260376 40.2115993 -0.16398244 60.31759834 -0.20724869 C69.65321234 -0.22787211 78.98869138 -0.25598851 88.32421875 -0.30175781 C96.46126708 -0.3416323 104.59821766 -0.36743441 112.73536098 -0.37635398 C117.04378094 -0.3815677 121.35192129 -0.39381717 125.66025162 -0.42292023 C129.71664848 -0.45009909 133.77265091 -0.45844007 137.82913017 -0.45243073 C139.31663469 -0.45352987 140.8041526 -0.46146932 142.29157829 -0.4768219 C144.32564588 -0.49678434 146.35992579 -0.48954041 148.39407349 -0.48101807 C150.1003123 -0.48654882 150.1003123 -0.48654882 151.84102058 -0.49219131 C155.78746455 0.12269254 157.92521694 1.48322397 161 4 C163 8 163 8 163 28 C109.21 28 55.42 28 0 28 C0 18.76 0 9.52 0 0 Z " fill="#FCFEFE" transform="translate(945,394)"/>
<path d="M0 0 C0.33 0 0.66 0 1 0 C1 36.96 1 73.92 1 112 C-20 112 -20 112 -24 110 C-30.98697811 96.84982711 -29.36739406 75.05567883 -25.1987915 61.11722946 C-22.18552 51.90938596 -18.36708495 43.01099111 -14.48382568 34.14318848 C-12.8102361 30.2847645 -11.20766002 26.396996 -9.59765625 22.51171875 C-6.46451507 14.97861214 -3.25866661 7.47966245 0 0 Z " fill="#FDFEFE" transform="translate(694,709)"/>
<path d="M0 0 C0.66 0.33 1.32 0.66 2 1 C-1.3 4.3 -4.6 7.6 -8 11 C-8.66 10.67 -9.32 10.34 -10 10 C-8.90033225 8.70450101 -7.79508199 7.41373929 -6.6875 6.125 C-6.07261719 5.40570313 -5.45773437 4.68640625 -4.82421875 3.9453125 C-3 2 -3 2 0 0 Z " fill="#655B5C" transform="translate(478,37)"/>
</svg>
